<svg width="14" height="15" viewBox="0 0 14 15" fill="none" xmlns="http://www.w3.org/2000/svg">
<path d="M4.2726e-08 5.94827C-5.18068e-05 5.73197 0.047088 5.51826 0.138131 5.32204C0.229174 5.12583 0.361929 4.95185 0.527134 4.81222L5.73156 0.351283C5.99995 0.124451 6.34 0 6.69141 0C7.04281 0 7.38286 0.124451 7.65125 0.351283L12.8557 4.81222C13.0209 4.95185 13.1536 5.12583 13.2447 5.32204C13.3357 5.51826 13.3829 5.73197 13.3828 5.94827V12.6397C13.3828 13.0341 13.2261 13.4123 12.9473 13.6911C12.6684 13.97 12.2902 14.1267 11.8958 14.1267H1.48698C1.09261 14.1267 0.714389 13.97 0.435526 13.6911C0.156663 13.4123 4.2726e-08 13.0341 4.2726e-08 12.6397V5.94827Z" fill="#919EAB"/>
<path d="M8.92187 14.1267V8.17879C8.92187 7.98161 8.84354 7.7925 8.70411 7.65307C8.56468 7.51363 8.37557 7.4353 8.17839 7.4353H5.20443C5.00724 7.4353 4.81813 7.51363 4.6787 7.65307C4.53927 7.7925 4.46094 7.98161 4.46094 8.17879V14.1267" stroke="white" stroke-width="1.5" stroke-linecap="round" stroke-linejoin="round"/>
</svg>
