<svg width="18" height="18" viewBox="0 0 18 18" fill="none" xmlns="http://www.w3.org/2000/svg">
<g clip-path="url(#clip0_1_5797)">
<path d="M6.82651 11.2167L7.24348 10.976C7.41342 10.8778 7.47166 10.6605 7.37354 10.4905L6.58348 9.12207C6.51766 9.00807 6.3982 8.94432 6.27542 8.94432C6.21511 8.94432 6.15402 8.95965 6.09808 8.99201L5.68111 9.23274C5.62384 9.26577 5.56311 9.28086 5.50396 9.28086C5.31833 9.28086 5.14808 9.13244 5.14808 8.92498V8.44353C5.14808 8.24729 4.98899 8.08813 4.79269 8.08813H3.21251C3.01627 8.08813 2.85711 8.24723 2.85711 8.44353V8.92498C2.85711 9.13244 2.68681 9.28086 2.50123 9.28086C2.44208 9.28086 2.38136 9.26577 2.32408 9.23274L1.90711 8.99201C1.85117 8.95971 1.79002 8.94438 1.72978 8.94432C1.60693 8.94432 1.48754 9.00807 1.42172 9.12207L0.631659 10.4905C0.533538 10.6605 0.59178 10.8778 0.76172 10.976L1.17869 11.2167C1.4156 11.3535 1.4156 11.6954 1.17869 11.8322L0.76172 12.0729C0.59172 12.171 0.533538 12.3884 0.631659 12.5584L1.42172 13.9268C1.48754 14.0408 1.60699 14.1046 1.72978 14.1046C1.79008 14.1046 1.85117 14.0892 1.90711 14.0569L2.32408 13.8161C2.38136 13.7831 2.44208 13.768 2.50123 13.768C2.68687 13.768 2.85711 13.9164 2.85711 14.1239V14.6053C2.85711 14.8016 3.0162 14.9607 3.21251 14.9607H4.79263C4.98887 14.9607 5.14802 14.8017 5.14802 14.6053V14.1239C5.14802 13.9164 5.31833 13.768 5.5039 13.768C5.56305 13.768 5.62378 13.7831 5.68105 13.8161L6.09802 14.0569C6.15396 14.0892 6.21511 14.1046 6.27536 14.1046C6.3982 14.1046 6.5176 14.0408 6.58342 13.9268L7.37348 12.5584C7.4716 12.3884 7.41336 12.171 7.24342 12.0729L6.82645 11.8322C6.5896 11.6954 6.5896 11.3534 6.82651 11.2167ZM4.00263 12.5787C3.42033 12.5787 2.94833 12.1067 2.94833 11.5244C2.94833 10.9421 3.42039 10.4701 4.00263 10.4701C4.58487 10.4701 5.05693 10.9422 5.05693 11.5244C5.05693 12.1067 4.58487 12.5787 4.00263 12.5787Z" fill="#919EAB"/>
<path d="M6.55229 1.43392C6.36162 1.24338 6.05271 1.24338 5.86205 1.43392C5.67144 1.62459 5.67144 1.93356 5.86205 2.12417L6.73417 2.99623C3.52878 3.15496 0.934108 5.67271 0.65332 8.84508L0.725442 8.72011C0.931866 8.36253 1.31671 8.14041 1.72968 8.14047C1.73841 8.14047 1.74708 8.14126 1.75581 8.1415C2.30574 5.85538 4.29914 4.12629 6.71429 3.97611L5.86205 4.82829C5.67144 5.01889 5.67144 5.32792 5.86205 5.51853C5.95738 5.6138 6.08223 5.66144 6.20714 5.66144C6.33205 5.66144 6.45696 5.6138 6.55223 5.51853L8.24944 3.82132C8.34096 3.72974 8.39235 3.60562 8.39235 3.47623C8.39235 3.34677 8.34096 3.22265 8.24944 3.13114L6.55229 1.43392Z" fill="#919EAB"/>
<path d="M12.7192 3.93073C13.8029 3.93073 14.6846 3.04909 14.6846 1.96539C14.6846 0.881636 13.8029 0 12.7192 0C11.6355 0 10.7539 0.881636 10.7539 1.96533C10.7539 3.04903 11.6355 3.93073 12.7192 3.93073Z" fill="#919EAB"/>
<path d="M16.5484 9.22882V6.527C16.5484 5.77912 16.0678 5.11591 15.3571 4.88312L15.3538 4.88203L14.3143 4.70991C14.2258 4.68269 14.1313 4.72954 14.0995 4.81681L12.92 8.05312C12.8519 8.23985 12.5878 8.23985 12.5198 8.05312L11.3403 4.81681C11.3146 4.74633 11.2481 4.70215 11.1768 4.70215C11.1599 4.70215 10.086 4.88179 10.086 4.88179C9.36941 5.12057 8.89062 5.78482 8.89062 6.53597V9.22882C8.89062 9.63239 9.21778 9.95948 9.62129 9.95948H15.8177C16.2214 9.95948 16.5484 9.63233 16.5484 9.22882Z" fill="#919EAB"/>
<path d="M17.4171 9.87476C17.3763 10.4332 16.9181 10.7752 16.3595 10.8157C15.9315 13.2657 13.8621 15.1575 11.3305 15.3149L12.1827 14.4628C12.3733 14.2721 12.3733 13.9631 12.1827 13.7725C11.992 13.582 11.6831 13.582 11.4925 13.7725L9.7953 15.4697C9.60469 15.6604 9.60469 15.9694 9.7953 16.16L11.4925 17.8571C11.5878 17.9524 11.7126 18 11.8375 18C11.9625 18 12.0874 17.9524 12.1826 17.8571C12.3732 17.6665 12.3732 17.3575 12.1826 17.1669L11.3106 16.2948C14.7062 16.1267 17.4171 13.3114 17.4171 9.87476Z" fill="#919EAB"/>
<path d="M13.1478 4.67306C13.1025 4.62373 13.0363 4.59888 12.9693 4.59888H12.4696C12.4026 4.59888 12.3363 4.62373 12.291 4.67306C12.2209 4.74948 12.2107 4.85985 12.2605 4.94609L12.5276 5.34876L12.4025 6.4036L12.6488 7.05863C12.6728 7.12451 12.7659 7.12451 12.79 7.05863L13.0362 6.4036L12.9112 5.34876L13.1783 4.94609C13.2281 4.85985 13.2179 4.74948 13.1478 4.67306Z" fill="#919EAB"/>
</g>
<defs>
<clipPath id="clip0_1_5797">
<rect width="18" height="18" fill="white"/>
</clipPath>
</defs>
</svg>
