<svg width="40" height="40" viewBox="0 0 40 40" fill="none" xmlns="http://www.w3.org/2000/svg">
<rect width="40" height="40" rx="20" fill="#F4F6F8"/>
<path fill-rule="evenodd" clip-rule="evenodd" d="M20.1511 10.35C14.8123 10.2685 10.4549 14.4704 10.3515 19.8088C10.3363 20.5925 10.4146 21.3555 10.5761 22.0872C10.8494 23.3262 11.0118 24.5871 11.0118 25.856V28.3086C11.0118 28.6843 11.3164 28.989 11.6922 28.989H14.1448C15.4136 28.989 16.6745 29.1514 17.9136 29.4247C18.6453 29.5861 19.4082 29.6645 20.1919 29.6493C25.5302 29.5459 29.7322 25.1886 29.6508 19.8499C29.5713 14.639 25.362 10.4296 20.1511 10.35Z" fill="#046AF7"/>
<g opacity="0.48">
<path fill-rule="evenodd" clip-rule="evenodd" d="M16.5456 19.4826C16.2729 19.1929 15.8871 19.011 15.4578 19.011C14.6322 19.011 13.9629 19.6803 13.9629 20.5059C13.9629 20.9351 14.1448 21.321 14.4345 21.5937L17.6592 24.8184C17.9319 25.1081 18.3178 25.29 18.747 25.29C19.5726 25.29 20.2419 24.6207 20.2419 23.7951C20.2419 23.3659 20.06 22.98 19.7703 22.7073L16.5456 19.4826Z" fill="#006C9C"/>
<path fill-rule="evenodd" clip-rule="evenodd" d="M20.7731 19.4826C20.5005 19.1929 20.1146 19.011 19.6853 19.011C18.8597 19.011 18.1904 19.6803 18.1904 20.5059C18.1904 20.9351 18.3723 21.321 18.662 21.5937L21.8868 24.8184C22.1594 25.1081 22.5453 25.29 22.9745 25.29C23.8001 25.29 24.4694 24.6207 24.4694 23.7951C24.4694 23.3659 24.2875 22.98 23.9978 22.7073L20.7731 19.4826Z" fill="#006C9C"/>
<path fill-rule="evenodd" clip-rule="evenodd" d="M25.0005 19.4826C24.7278 19.1929 24.342 19.011 23.9127 19.011C23.0871 19.011 22.4178 19.6803 22.4178 20.5059C22.4178 20.9351 22.5997 21.321 22.8894 21.5937L26.1141 24.8184C26.3868 25.1081 26.7727 25.29 27.2019 25.29C28.0275 25.29 28.6968 24.6207 28.6968 23.7951C28.6968 23.3659 28.5149 22.98 28.2252 22.7073L25.0005 19.4826Z" fill="#006C9C"/>
</g>
<path d="M16.9527 20.5056C16.9527 21.3312 16.2834 22.0005 15.4578 22.0005C14.6322 22.0005 13.9629 21.3312 13.9629 20.5056C13.9629 19.68 14.6322 19.0107 15.4578 19.0107C16.2834 19.0107 16.9527 19.68 16.9527 20.5056Z" fill="white"/>
<path d="M21.18 20.5057C21.18 21.3313 20.5107 22.0006 19.6851 22.0006C18.8595 22.0006 18.1902 21.3313 18.1902 20.5057C18.1902 19.6801 18.8595 19.0108 19.6851 19.0108C20.5107 19.0108 21.18 19.6801 21.18 20.5057Z" fill="white"/>
<path d="M25.4078 20.5057C25.4078 21.3313 24.7385 22.0006 23.9129 22.0006C23.0873 22.0006 22.418 21.3313 22.418 20.5057C22.418 19.6801 23.0873 19.0108 23.9129 19.0108C24.7385 19.0108 25.4078 19.6801 25.4078 20.5057Z" fill="white"/>
</svg>
