<svg width="38" height="38" viewBox="0 0 38 38" fill="none" xmlns="http://www.w3.org/2000/svg">
<rect width="37.9319" height="37.9319" rx="10.8377" fill="#046AF7"/>
<path fill-rule="evenodd" clip-rule="evenodd" d="M13.9383 11.6389C14.2439 11.8547 14.3168 12.2773 14.1011 12.5829C13.3521 13.6439 12.8703 14.8649 12.8703 16.2564C12.8703 16.6305 12.5671 16.9338 12.193 16.9338C11.8189 16.9338 11.5156 16.6305 11.5156 16.2564C11.5156 14.5321 12.1176 13.0437 12.9943 11.8017C13.21 11.4961 13.6327 11.4232 13.9383 11.6389ZM23.9948 11.6389C24.3004 11.4232 24.723 11.4961 24.9388 11.8017C25.8155 13.0437 26.4175 14.5321 26.4175 16.2564C26.4175 16.6305 26.1142 16.9338 25.7401 16.9338C25.366 16.9338 25.0627 16.6305 25.0627 16.2564C25.0627 14.8649 24.5809 13.6439 23.832 12.5829C23.6163 12.2773 23.6891 11.8547 23.9948 11.6389ZM18.9665 12.8697C18.0683 12.8697 17.2069 13.2265 16.5717 13.8616C15.9366 14.4968 15.5798 15.3582 15.5798 16.2564C15.5798 18.727 15.0494 20.3649 14.481 21.407C14.4295 21.5015 14.3777 21.5908 14.3262 21.6753H23.6069C23.5554 21.5908 23.5036 21.5015 23.4521 21.407C22.8836 20.3649 22.3533 18.727 22.3533 16.2564C22.3533 15.3582 21.9965 14.4968 21.3614 13.8616C20.7262 13.2265 19.8648 12.8697 18.9665 12.8697ZM25.4463 21.7944C25.4459 21.794 25.4452 21.7935 25.4444 21.7929C25.4392 21.7891 25.4271 21.7798 25.4091 21.7648C25.373 21.7348 25.3131 21.6815 25.237 21.601C25.0849 21.4406 24.8661 21.1703 24.6414 20.7582C24.1937 19.9376 23.708 18.5274 23.708 16.2564C23.708 14.9989 23.2085 13.7929 22.3193 12.9037C21.4301 12.0145 20.2241 11.5149 18.9665 11.5149C17.709 11.5149 16.503 12.0145 15.6138 12.9037C14.7246 13.7929 14.225 14.9989 14.225 16.2564C14.225 18.5274 13.7393 19.9376 13.2917 20.7582C13.067 21.1703 12.8481 21.4406 12.6961 21.601C12.6199 21.6815 12.5601 21.7348 12.524 21.7648C12.506 21.7798 12.4939 21.7891 12.4887 21.7929C12.4879 21.7935 12.4872 21.794 12.4867 21.7944C12.2439 21.9612 12.1365 22.2663 12.222 22.5489C12.3085 22.8346 12.5718 23.03 12.8703 23.03H25.0627C25.3612 23.03 25.6245 22.8346 25.711 22.5489C25.7966 22.2663 25.6892 21.9612 25.4463 21.7944ZM12.4936 21.7897C12.4936 21.7897 12.4937 21.7897 12.4938 21.7896C12.4937 21.7896 12.4937 21.7896 12.4937 21.7896L12.4936 21.7897ZM17.4887 24.4685C17.8165 24.2883 18.2284 24.4079 18.4086 24.7357C18.4636 24.8356 18.5443 24.919 18.6425 24.977C18.7406 25.0351 18.8526 25.0657 18.9666 25.0657C19.0806 25.0657 19.1925 25.0351 19.2907 24.977C19.3888 24.919 19.4696 24.8356 19.5245 24.7357C19.7048 24.4079 20.1166 24.2883 20.4444 24.4685C20.7722 24.6487 20.8919 25.0606 20.7116 25.3884C20.5398 25.7009 20.2872 25.9616 19.9803 26.1431C19.6733 26.3246 19.3232 26.4204 18.9666 26.4204C18.6099 26.4204 18.2599 26.3246 17.9529 26.1431C17.6459 25.9616 17.3933 25.7009 17.2215 25.3884C17.0413 25.0606 17.1609 24.6487 17.4887 24.4685Z" fill="white"/>
</svg>
