<svg width="20" height="24" viewBox="0 0 20 24" fill="none" xmlns="http://www.w3.org/2000/svg">
<path fill-rule="evenodd" clip-rule="evenodd" d="M6.35125 20.9438C7.88373 23.9358 12.1163 23.9358 13.5758 20.9438H19.4867C19.8516 20.9438 20.1435 20.5059 19.9246 20.214C19.2678 19.1924 18.83 18.3897 18.3921 17.6599H1.53491C1.17003 18.3897 0.65921 19.1924 0.0754102 20.214C-0.143515 20.5059 0.148385 20.9438 0.51326 20.9438H6.35125Z" fill="#046AF7"/>
<path fill-rule="evenodd" clip-rule="evenodd" d="M17.8817 16.6383C17.079 14.9599 17.006 13.7193 17.006 10.4354C17.006 7.29749 14.8898 4.59742 11.9708 3.7947V1.97032C11.9708 -0.656774 8.03011 -0.656774 8.03011 1.97032V3.7947C5.11111 4.59742 2.99484 7.29749 2.99484 10.4354C2.99484 13.7193 2.92186 14.9599 2.11914 16.6383H3.14079C3.72459 15.2518 3.79756 13.9382 3.79756 11.0192C3.79756 8.02724 5.62194 5.47312 8.32201 4.52445V5.10824C5.91384 6.05692 4.30839 8.39212 4.30839 11.0192C4.30839 13.0625 4.38136 14.8139 3.72459 16.6383H17.8817Z" fill="#046AF7"/>
</svg>
