<svg width="17" height="12" viewBox="0 0 17 12" fill="none" xmlns="http://www.w3.org/2000/svg">
<path d="M0.31543 5.125H16.3877C16.5401 5.12523 16.664 5.24898 16.6641 5.40137C16.6641 5.5538 16.5401 5.67758 16.3877 5.67773H15.8223V7.80371C15.8223 8.84712 15.2701 9.76424 14.4434 10.2793L14.4121 10.2988L14.4297 10.332L15.0605 11.5059C15.1328 11.6402 15.0826 11.8076 14.9482 11.8799C14.9065 11.9022 14.8614 11.9131 14.8174 11.9131C14.7191 11.9129 14.624 11.86 14.5742 11.7676L13.9297 10.5693L13.9141 10.5391L13.8818 10.5508C13.5769 10.6593 13.249 10.7188 12.9072 10.7188H3.7959C3.50365 10.7188 3.22143 10.6751 2.95508 10.5947L2.92383 10.585L2.9082 10.6133L2.28809 11.7676C2.23822 11.8601 2.14325 11.9131 2.04492 11.9131C2.0008 11.9131 1.95578 11.9023 1.91406 11.8799C1.77991 11.8076 1.72974 11.6401 1.80176 11.5059L2.39453 10.4033L2.41309 10.3691L2.37891 10.3496C1.4863 9.8507 0.880859 8.89656 0.880859 7.80371V5.67773H0.31543C0.163005 5.67762 0.0390638 5.55382 0.0390625 5.40137C0.0390625 5.24891 0.163004 5.12512 0.31543 5.125ZM0.31543 1.83203H3.71582C4.32474 1.83225 4.82031 2.32755 4.82031 2.93652V3.60742C4.82021 3.75986 4.6964 3.88379 4.54395 3.88379C4.3915 3.88377 4.26769 3.75984 4.26758 3.60742V2.93652C4.26758 2.63205 4.02024 2.38401 3.71582 2.38379H0.31543C0.163004 2.38367 0.0390625 2.25987 0.0390625 2.10742C0.0393178 1.95519 0.163162 1.83215 0.31543 1.83203ZM0.729492 0.0390625H1.26953C1.4218 0.039273 1.5448 0.163135 1.54492 0.31543V1.14453C1.54476 1.29679 1.42177 1.42069 1.26953 1.4209H0.729492C0.348956 1.42066 0.0390625 1.11008 0.0390625 0.729492C0.0393026 0.349104 0.349104 0.0393025 0.729492 0.0390625Z" fill="#016BFF" stroke="#016BFF" stroke-width="0.0789119"/>
</svg>
