<svg width="39" height="37" viewBox="0 0 39 37" fill="none" xmlns="http://www.w3.org/2000/svg">
<path fill-rule="evenodd" clip-rule="evenodd" d="M26.0442 11.5189C26.0442 11.1837 26.3152 10.9127 26.6504 10.9127C26.9856 10.9127 27.2566 11.1837 27.2566 11.5189C27.2566 11.8975 27.4094 12.2397 27.6578 12.4881C27.9062 12.7365 28.2483 12.8893 28.627 12.8893C29.0039 12.8893 29.3426 12.7365 29.5893 12.4916C29.8411 12.2397 29.9957 11.894 30.0009 11.5137C30.0113 10.6123 29.2697 10.3934 28.5141 10.1693C27.3122 9.81328 26.0877 9.44853 26.046 7.57618C26.0442 7.49107 26.0425 7.56749 26.0425 7.52234C26.0425 6.82584 26.3308 6.19707 26.7928 5.73855C27.1246 5.40854 27.5484 5.1671 28.0208 5.0542V4.15277C28.0208 3.81755 28.2918 3.54659 28.627 3.54659C28.9622 3.54659 29.2332 3.81754 29.2332 4.15277V5.05247C29.7039 5.16537 30.1242 5.40679 30.4542 5.73682C30.9214 6.20405 31.2115 6.85017 31.2115 7.56404C31.2115 7.89927 30.9405 8.17023 30.6053 8.17023C30.2701 8.17023 29.9991 7.89927 29.9991 7.56404C29.9991 7.1854 29.8463 6.84323 29.5979 6.59485C29.3495 6.34648 29.0074 6.19363 28.6287 6.19363H28.627H28.6252C28.5992 6.19363 28.594 6.19363 28.5957 6.19189L28.5836 6.19016C28.2205 6.20058 27.8888 6.35342 27.6456 6.59485C27.4059 6.83281 27.2548 7.15933 27.2548 7.52234C27.2548 7.59702 27.2513 7.49628 27.2531 7.5536C27.2757 8.54191 28.0729 8.77811 28.8545 9.01084C30.053 9.3669 31.2288 9.716 31.208 11.5258C31.1993 12.2415 30.911 12.8858 30.4455 13.3513C30.1173 13.6796 29.7004 13.921 29.2332 14.0339V14.9336C29.2332 15.2689 28.9622 15.5398 28.627 15.5398C28.2918 15.5398 28.0208 15.2689 28.0208 14.9336V14.0339C27.5501 13.921 27.1315 13.6796 26.7998 13.3496C26.3325 12.8824 26.0425 12.2362 26.0425 11.5224L26.0442 11.5189ZM34.5187 3.65267C33.0111 2.14506 30.9286 1.21232 28.6289 1.21232C26.3293 1.21232 24.2467 2.14506 22.7392 3.65094C21.2316 5.15855 20.3006 7.24109 20.3006 9.5407C20.3006 11.8404 21.2333 13.9229 22.7409 15.4305C24.2485 16.938 26.3311 17.8708 28.6307 17.8708C30.9303 17.8708 33.0129 16.9381 34.5204 15.4305C36.028 13.9229 36.9608 11.8403 36.9608 9.5407C36.9608 7.24104 36.0281 5.1585 34.5204 3.65094L34.5187 3.65267ZM28.6289 0C25.9941 0 23.6094 1.06817 21.881 2.79468C20.1545 4.52115 19.0863 6.90591 19.0863 9.54261C19.0863 12.1775 20.1545 14.5622 21.881 16.2905C23.6075 18.017 25.9922 19.0852 28.6289 19.0852C31.2638 19.0852 33.6485 18.0171 35.3769 16.2905C37.1033 14.5641 38.1716 12.1776 38.1716 9.54261C38.1716 6.90765 37.1034 4.52302 35.3769 2.79468C33.6504 1.06822 31.2656 0 28.6289 0ZM35.9065 31.7659H20.351C20.1339 31.7659 19.9341 31.8545 19.79 32.0004C19.6701 32.1202 19.5885 32.2765 19.5642 32.4519C19.5659 32.4884 19.5677 32.5249 19.5677 32.5614V34.439C19.5677 34.4754 19.5659 34.5119 19.5642 34.5484C19.5885 34.7221 19.6701 34.8801 19.79 35C19.9341 35.1441 20.1322 35.2345 20.351 35.2345H35.9065C36.1236 35.2345 36.3233 35.1459 36.4675 35C36.6116 34.8558 36.7019 34.6578 36.7019 34.439V32.5614C36.7019 32.3442 36.6134 32.1445 36.4675 32.0004C36.3233 31.8562 36.1253 31.7659 35.9065 31.7659ZM18.3465 34.5466C18.3448 34.5102 18.3431 34.4737 18.3431 34.4372V32.5596C18.3431 32.5231 18.3448 32.4867 18.3465 32.4502C18.3222 32.2765 18.2406 32.1185 18.1207 31.9986C17.9766 31.8545 17.7786 31.7641 17.5597 31.7641L2.00605 31.7659C1.78894 31.7659 1.58919 31.8545 1.44504 32.0004C1.30088 32.1445 1.21056 32.3425 1.21056 32.5614V34.439C1.21056 34.6561 1.29914 34.8558 1.44504 35C1.5892 35.1441 1.78721 35.2345 2.00605 35.2345H17.5615C17.7786 35.2345 17.9784 35.1459 18.1225 35C18.2424 34.8801 18.324 34.7238 18.3483 34.5484L18.3465 34.5466ZM18.3465 29.8503C18.3448 29.8208 18.3431 29.7895 18.3431 29.76V27.8824C18.3431 27.8511 18.3448 27.8216 18.3465 27.7921C18.3187 27.634 18.2163 27.4864 18.0669 27.3683C17.8498 27.1963 17.5406 27.0886 17.1933 27.0886H2.37235C2.02497 27.0886 1.71578 27.1946 1.49871 27.3683C1.32154 27.509 1.21212 27.6913 1.21212 27.8841V29.7617C1.21212 29.9545 1.32154 30.1369 1.49871 30.2776C1.71582 30.4496 2.02499 30.5573 2.37235 30.5573H17.1933C17.5406 30.5573 17.8498 30.4513 18.0669 30.2776C18.2163 30.1595 18.317 30.0119 18.3465 29.8538V29.8503ZM18.9649 31.1113L18.9544 31.1026L18.944 31.1113L18.9544 31.12L18.9649 31.1113ZM35.5399 30.5537C35.8873 30.5537 36.1964 30.4478 36.4135 30.2741C36.5907 30.1334 36.7001 29.951 36.7001 29.7582V27.8806C36.7001 27.6878 36.5907 27.5054 36.4135 27.3647C36.1964 27.1928 35.8872 27.0851 35.5399 27.0851H20.719C20.3716 27.0851 20.0624 27.191 19.8453 27.3647C19.696 27.4828 19.5952 27.6305 19.5657 27.7885C19.5674 27.8181 19.5692 27.8493 19.5692 27.8789V29.7565C19.5692 29.7877 19.5674 29.8172 19.5674 29.8468C19.5952 30.0048 19.6977 30.1525 19.8471 30.2706C20.0642 30.4425 20.3734 30.5502 20.7207 30.5502H35.5416L35.5399 30.5537ZM19.0204 26.4825C18.6018 26.1195 18.3448 25.6279 18.3448 25.0826V23.205C18.3448 22.6266 18.6331 22.109 19.0969 21.7425C19.5207 21.4073 20.0956 21.1988 20.7191 21.1988H35.54C36.1635 21.1988 36.7385 21.4072 37.1623 21.7425C37.626 22.109 37.9143 22.6266 37.9143 23.205V25.0826C37.9143 25.6297 37.6573 26.1212 37.2387 26.4825C37.6573 26.8455 37.9143 27.337 37.9143 27.8824V29.76C37.9143 30.2828 37.6799 30.7535 37.2925 31.1113C37.303 31.1217 37.3151 31.1322 37.3255 31.1426C37.6886 31.5056 37.9143 32.0075 37.9143 32.5599V34.4375C37.9143 34.9898 37.6885 35.4918 37.3255 35.8548C36.9625 36.2178 36.4606 36.4436 35.9082 36.4436H20.3528C19.8108 36.4436 19.3193 36.2265 18.9581 35.8774C18.5968 36.2282 18.1035 36.4436 17.5633 36.4436L2.0061 36.4453C1.45377 36.4453 0.951807 36.2195 0.588799 35.8565C0.225791 35.4935 0 34.9916 0 34.4392V32.5616C0 32.0093 0.225795 31.5073 0.588799 31.1443C0.59922 31.1339 0.609642 31.1235 0.621799 31.1131C0.234474 30.7553 8.05688e-06 30.2845 8.05688e-06 29.7617V27.8841C8.05688e-06 27.3057 0.288334 26.7882 0.752081 26.4217C1.17588 26.0864 1.7508 25.878 2.37432 25.878H17.1952C17.8188 25.878 18.3937 26.0864 18.8175 26.4217C18.8661 26.4599 18.913 26.4998 18.9564 26.5415C18.9773 26.5224 18.9998 26.5015 19.0207 26.4842L19.0204 26.4825ZM35.5399 25.8763C35.8873 25.8763 36.1964 25.7703 36.4135 25.5967C36.5907 25.456 36.7001 25.2736 36.7001 25.0808V23.2032C36.7001 23.0104 36.5907 22.828 36.4135 22.6873C36.1964 22.5153 35.8872 22.4077 35.5399 22.4077H20.719C20.3716 22.4077 20.0624 22.5136 19.8453 22.6873C19.6682 22.828 19.5588 23.0104 19.5588 23.2032V25.0808C19.5588 25.2736 19.6682 25.4559 19.8453 25.5967C20.0625 25.7686 20.3716 25.8763 20.719 25.8763H35.5399ZM14.3254 10.3884L2.39116 19.7727C2.12889 19.9793 1.74851 19.9342 1.5418 19.6702C1.33511 19.4079 1.38027 19.0275 1.64428 18.8208L13.5403 9.4677L10.7839 9.11164C10.4539 9.06996 10.2194 8.76774 10.2611 8.436C10.3027 8.10599 10.605 7.87153 10.9367 7.91319L15.1851 8.46206C15.5151 8.50375 15.7496 8.80597 15.708 9.1377L15.1591 13.3861C15.1174 13.7162 14.8152 13.9506 14.4834 13.909C14.1534 13.8673 13.919 13.5651 13.9606 13.2333L14.3289 10.3883L14.3254 10.3884Z" fill="#0492FE"/>
</svg>
