<svg width="41" height="44" viewBox="0 0 41 44" fill="none" xmlns="http://www.w3.org/2000/svg">
<rect width="40.902" height="44" rx="10" fill="#016BFF" fill-opacity="0.1"/>
<path d="M19.4636 29.578V24.3105H18.7607V29.578H19.4636Z" fill="#006BFF"/>
<path d="M28.1367 24.3101V29.5775H28.8395V24.3101H28.1367Z" fill="#006BFF"/>
<path d="M20.1006 24.3101H20.8034V29.5749H20.1006V24.3101Z" fill="#006BFF"/>
<path d="M24.821 29.578V24.3105H24.1182V29.578H24.821Z" fill="#006BFF"/>
<path d="M22.1413 29.578V24.3105H21.4385V29.578H22.1413Z" fill="#006BFF"/>
<path d="M12.0625 29.5752V29.578H12.7653V24.3105H12.0625V29.5752Z" fill="#006BFF"/>
<path d="M13.4014 24.3101H14.1042V29.5749H13.4014V24.3101Z" fill="#006BFF"/>
<path d="M25.458 24.3101H26.1608V29.5749H25.458V24.3101Z" fill="#006BFF"/>
<path d="M22.7803 24.3101H23.4831V29.5749H22.7803V24.3101Z" fill="#006BFF"/>
<path d="M16.7849 29.578V24.3105H16.082V29.578H16.7849Z" fill="#006BFF"/>
<path d="M15.4459 29.578V24.3105H14.7431V24.3124H14.7412V29.5753H14.7431V29.5781L15.4459 29.578Z" fill="#006BFF"/>
<path d="M17.4199 24.3101H18.1227V29.5749H17.4199V24.3101Z" fill="#006BFF"/>
<path d="M27.5006 29.578V24.3105H26.7978V24.3124H26.7959V29.5753H26.7978V29.5781L27.5006 29.578Z" fill="#006BFF"/>
<path d="M27.1113 12.5054H13.791V21.912H14.8777V13.5949H26.0247V21.912H27.1114L27.1113 12.5054Z" fill="#006BFF"/>
<path d="M27.2998 22.5479V23.6735H27.3017V23.6753H28.8399V22.5479L27.2998 22.5479Z" fill="#006BFF"/>
<path d="M11.2227 31.4948H29.6798V30.2134H11.2227V31.4948Z" fill="#006BFF"/>
<path d="M12.0625 22.5506V23.6753H13.6008V23.6735H13.6026V22.5479H12.0625L12.0625 22.5506Z" fill="#006BFF"/>
<path d="M26.6641 22.5506V22.5479H25.123V23.6753H26.6641V22.5506Z" fill="#006BFF"/>
<path d="M22.3078 23.6735H22.3096V22.5479H20.7695V23.6753H22.3078L22.3078 23.6735Z" fill="#006BFF"/>
<path d="M20.1301 23.6735H20.1329V22.5479H18.5928V23.6753H20.1301L20.1301 23.6735Z" fill="#006BFF"/>
<path d="M17.9543 23.6735H17.9561V22.5479H16.416V23.6753H17.9543L17.9543 23.6735Z" fill="#006BFF"/>
<path d="M15.7775 23.6735H15.7803V22.5479H14.2393V23.6753H15.7775L15.7775 23.6735Z" fill="#006BFF"/>
<path d="M24.4836 23.6735H24.4864V22.5479H22.9463V23.6753H24.4836L24.4836 23.6735Z" fill="#006BFF"/>
<path d="M25.386 14.231H20.7666V21.9119H25.386V14.231ZM22.2224 18.867L21.9943 18.6435L22.7917 17.8461L23.2423 18.2967L22.4449 19.0941L22.2196 18.866L22.2224 18.867ZM23.0624 20.3551L22.6118 19.9045L24.0546 18.4618L24.2799 18.6899L24.508 18.9133L23.0652 20.3561L23.0624 20.3551Z" fill="#006BFF"/>
<path d="M20.1302 14.231H15.5137V21.9119H20.1302V14.231ZM16.5085 16.3459L16.285 16.1178L17.0824 15.3204L17.533 15.7711L16.7356 16.5685L16.5075 16.345L16.5085 16.3459ZM17.3532 17.8323L16.9026 17.3816L18.3453 15.9389L18.7941 16.3895L17.3532 17.8323Z" fill="#006BFF"/>
</svg>
