<svg width="17" height="18" viewBox="0 0 17 18" fill="none" xmlns="http://www.w3.org/2000/svg">
<path d="M9.874 12.6544C10.0289 12.7303 10.2034 12.7476 10.3688 12.7036C10.5341 12.6595 10.6805 12.5567 10.7838 12.412L11.05 12.04C11.1897 11.8413 11.3709 11.68 11.5792 11.5689C11.7875 11.4578 12.0171 11.4 12.25 11.4H14.5C14.8978 11.4 15.2794 11.5686 15.5607 11.8686C15.842 12.1687 16 12.5757 16 13V15.4C16 15.8243 15.842 16.2313 15.5607 16.5314C15.2794 16.8314 14.8978 17 14.5 17C10.9196 17 7.4858 15.4829 4.95406 12.7823C2.42232 10.0818 1 6.41912 1 2.6C1 2.17565 1.15804 1.76869 1.43934 1.46863C1.72064 1.16857 2.10218 1 2.5 1H4.75C5.14782 1 5.52936 1.16857 5.81066 1.46863C6.09196 1.76869 6.25 2.17565 6.25 2.6V5C6.25 5.24839 6.19578 5.49337 6.09164 5.71554C5.9875 5.93771 5.83629 6.13097 5.65 6.28L5.299 6.5608C5.16131 6.67294 5.06426 6.83247 5.02434 7.01228C4.98442 7.19209 5.00409 7.3811 5.08 7.5472C6.10501 9.76789 7.79082 11.5638 9.874 12.6544Z" stroke="#94A3B8" stroke-width="2" stroke-linecap="round" stroke-linejoin="round"/>
</svg>
