<svg width="19" height="14" viewBox="0 0 19 14" fill="none" xmlns="http://www.w3.org/2000/svg">
<path d="M16.1841 0H2.55518C1.6143 0 0.851562 0.762734 0.851562 1.70361V11.9253C0.851562 12.8662 1.6143 13.6289 2.55518 13.6289H16.1841C17.125 13.6289 17.8877 12.8662 17.8877 11.9253V1.70361C17.8877 0.762734 17.125 0 16.1841 0Z" fill="#016BFF"/>
<path d="M17.8516 2.81445L10.2092 7.5889C9.94987 7.73664 9.6553 7.81445 9.35539 7.81445C9.05548 7.81445 8.7609 7.73664 8.50156 7.5889L0.851562 2.81445" fill="#016BFF"/>
<path d="M17.8516 2.81445L10.2092 7.5889C9.94987 7.73664 9.6553 7.81445 9.35539 7.81445C9.05548 7.81445 8.7609 7.73664 8.50156 7.5889L0.851562 2.81445" stroke="white" stroke-width="1.70361" stroke-linecap="round" stroke-linejoin="round"/>
</svg>
