<svg width="9" height="14" viewBox="0 0 9 14" fill="none" xmlns="http://www.w3.org/2000/svg">
<path d="M4.45664 12.2631C3.18611 12.2631 2.15502 12.009 1.36338 11.5008C0.57174 10.9877 0.11728 10.1985 0 9.13318L2.22832 9.0892C2.3456 9.57298 2.59726 9.94192 2.98331 10.196C3.37424 10.4452 3.86291 10.5699 4.44931 10.5699C4.80115 10.5699 5.11145 10.5137 5.38022 10.4013C5.65387 10.284 5.86889 10.1276 6.02526 9.93215C6.18163 9.73179 6.25982 9.50456 6.25982 9.25046C6.25982 8.85952 6.13521 8.56877 5.88599 8.37819C5.63677 8.18272 5.25317 8.02635 4.73518 7.90907L2.99797 7.53524C2.19167 7.37398 1.54419 7.0539 1.05552 6.57501C0.57174 6.09123 0.324963 5.44375 0.31519 4.63256C0.310303 3.96797 0.488667 3.39379 0.85028 2.91001C1.21678 2.42134 1.71278 2.04507 2.33827 1.78119C2.96865 1.51731 3.67477 1.38537 4.45664 1.38537C5.25805 1.38537 5.94952 1.52953 6.53103 1.81784C7.11743 2.10127 7.567 2.48487 7.87975 2.96865C8.19738 3.44754 8.35131 3.97775 8.34154 4.55926L6.17919 4.59591C6.11077 4.12679 5.9544 3.75785 5.71007 3.48908C5.46574 3.22031 5.06014 3.08593 4.49329 3.08593C4.20009 3.08593 3.93865 3.11769 3.70898 3.18122C3.47931 3.24475 3.2814 3.33515 3.11525 3.45243C2.9491 3.56482 2.82205 3.69921 2.73409 3.85558C2.65102 4.01195 2.60948 4.18787 2.60948 4.38334C2.60948 4.6912 2.7121 4.93553 2.91734 5.11634C3.12747 5.29226 3.52084 5.45596 4.09747 5.60745L5.80536 6.02526C6.76803 6.25493 7.46194 6.64831 7.88708 7.20539C8.3171 7.76247 8.53212 8.43927 8.53212 9.2358C8.53212 9.84663 8.36353 10.3793 8.02635 10.8337C7.69406 11.2882 7.22249 11.64 6.61166 11.8893C6.00083 12.1385 5.28249 12.2631 4.45664 12.2631ZM3.50374 13.5165V11.6107H5.3509V13.5165H3.50374ZM3.54039 1.9058V0H5.39488V1.9058H3.54039Z" fill="#006AFE"/>
</svg>
