<svg width="45" height="44" viewBox="0 0 45 44" fill="none" xmlns="http://www.w3.org/2000/svg">
<rect width="44.1121" height="44" rx="10" fill="#016BFF" fill-opacity="0.1"/>
<path d="M31.238 29.967L31.2141 29.9432V27.6224C31.2141 27.5922 31.1014 27.484 31.0711 27.4629C31.0308 27.4345 30.7705 27.3199 30.7705 27.3007C30.93 27.1834 31.1766 27.122 31.2141 26.8974V22.3833C31.1958 22.2192 31.029 22.123 30.8906 22.0717L30.8814 22.0314C31.2004 21.8059 31.3791 21.3155 31.0244 21.0314C30.9987 21.0103 30.7778 20.8884 30.787 20.8765C30.8741 20.86 31.216 20.6629 31.216 20.5786V17.749C31.4011 17.7445 31.5982 17.8196 31.7815 17.8288C31.8072 17.8288 31.8429 17.8361 31.8613 17.8123L32.9501 13.9104L30.1161 13.4759C30.0364 13.4924 29.952 13.5373 29.9218 13.6171C29.8301 13.8517 29.8347 14.2651 29.7669 14.5227C29.711 14.7335 29.5488 14.7756 29.3535 14.7646C29.0483 14.7463 28.5818 14.6611 28.2766 14.6006C28.0254 14.5511 27.8659 14.4924 27.887 14.1945L28.0602 13.1524L25.5918 12.7656C25.4653 12.761 25.3828 12.7656 25.3104 12.8857C25.106 13.2165 25.3407 13.9745 24.7962 14.0405C24.5781 14.0662 23.8531 13.9443 23.6111 13.893C23.4278 13.8526 23.3059 13.7848 23.283 13.5813L23.4709 12.4833C23.4709 12.3944 23.2784 12.2771 23.2078 12.2395C22.6074 11.9205 21.4507 11.9159 20.8567 12.2514C20.7577 12.3055 20.6101 12.3971 20.6129 12.519C20.622 12.8453 20.7604 13.2349 20.7861 13.5657C20.7485 13.7701 20.589 13.838 20.4085 13.8774C20.1362 13.936 19.5826 14.0396 19.3177 14.0442C19.1372 14.0488 18.9685 13.9644 18.9236 13.7811C18.8649 13.5437 18.8649 13.1102 18.7779 12.9131C18.7403 12.8261 18.6321 12.7536 18.5387 12.7509L16.0043 13.1615C15.9859 13.1753 15.9905 13.1872 15.9924 13.2064C16.0162 13.53 16.1445 13.903 16.1638 14.2275C16.1876 14.6198 15.7458 14.6216 15.4717 14.6684C15.2628 14.7032 14.7 14.8187 14.5259 14.7619C14.3902 14.717 14.326 14.6143 14.2958 14.4805C14.2371 14.2321 14.2399 13.9149 14.1693 13.673C14.1244 13.5227 14.0172 13.4805 13.8687 13.4924L11.1611 13.9287L12.2097 17.8451L12.7661 17.7489V19.1751C12.7661 19.2576 12.8788 19.3978 12.9393 19.4501C13.0566 19.5491 13.2024 19.5793 13.3261 19.6545C13.4251 19.7131 13.4342 19.7599 13.3353 19.835C13.1354 19.9872 12.8 20.011 12.7651 20.3511V24.1384C12.7954 24.3327 12.9292 24.4363 13.0933 24.5161C13.1657 24.5509 13.4617 24.6196 13.3279 24.725C13.1703 24.8497 12.8843 24.8589 12.7972 25.1054C12.7523 25.2347 12.7477 25.6783 12.7945 25.8048C12.8577 25.9762 12.9869 25.9808 13.1116 26.0633C13.1281 26.0724 13.14 26.0633 13.1327 26.0981C13.0062 26.1238 12.767 26.3071 12.767 26.4455V29.9679H12.2436L11.7505 32H32.3524L31.8529 29.9679H31.2497L31.238 29.967ZM17.8725 29.9432L17.8486 29.967H17.1328L17.1089 29.9432V29.3236H17.8715V29.9432H17.8725ZM20.1437 29.9432L20.1199 29.967H19.3903L19.3665 29.9432V29.3236H20.1456V29.9432H20.1437ZM22.415 29.967H21.6928L21.6689 29.9432V29.3236H22.415V29.9688L22.415 29.967ZM24.7028 29.9432L24.6789 29.967H23.9631L23.9393 29.9432V29.3236H24.7019V29.9432H24.7028ZM26.9585 29.9432L26.9346 29.967H26.2353L26.2115 29.9432V29.3236H26.9576V29.9432H26.9585ZM27.7861 26.0129L27.7815 27.55C27.4974 27.5335 27.2536 27.6343 27.0849 27.8671C27.0446 27.923 26.9557 28.1064 26.9557 28.1696V28.9185H26.2096V28.2173C26.2096 28.1256 26.1088 27.9212 26.0501 27.847C25.7192 27.4244 25.0391 27.4666 24.7834 27.946C24.7651 27.979 24.7009 28.1265 24.7009 28.1522V28.9175H23.9383V28.1834C23.9383 27.9139 23.5699 27.6105 23.3233 27.5665C22.9365 27.4987 22.4132 27.7801 22.4132 28.2145V28.9157H21.6671V28.2301C21.6671 28.1925 21.6157 28.0376 21.5965 27.9955C21.3573 27.4886 20.6552 27.3951 20.3014 27.8268C20.2565 27.8809 20.1419 28.0853 20.1419 28.1485V28.9139H19.3628V28.1797C19.3628 28.1164 19.2877 27.9634 19.2528 27.9047C18.9293 27.374 18.108 27.4611 17.9064 28.055C17.899 28.0761 17.8715 28.1678 17.8715 28.1797V28.9139H17.1089C17.0851 28.6746 17.1392 28.3786 17.1089 28.1485C17.0906 28.0101 16.9513 27.8085 16.8459 27.7214C16.691 27.5922 16.5361 27.5738 16.3436 27.5335V25.2292C16.3134 24.9598 16.3317 24.6802 16.3299 24.408C16.3253 23.7655 16.4142 23.0331 16.5599 22.4016C17.1465 19.8416 19.8285 18.4474 22.2784 18.5483C24.1977 18.628 25.8595 19.6207 26.9173 21.2228C27.7642 22.5041 27.8302 23.8625 27.7853 25.3712C27.8275 25.5546 28.0016 25.6297 28.1464 25.714C28.008 25.791 27.844 25.8433 27.7853 26.0073L27.7861 26.0129Z" fill="#006BFF"/>
<path d="M25.2026 22.6013C25.1742 22.5893 25.1815 22.6086 25.1788 22.6251C25.165 22.7241 25.1925 22.8854 25.1788 23.01C25.1155 23.5004 24.792 23.9367 24.3548 24.1484C24.8589 22.9706 24.8149 21.4261 23.8058 20.537C23.7563 20.5325 23.7984 20.5535 23.7984 20.5609C23.803 20.6874 23.7984 20.8194 23.7984 20.9477C23.7984 21.0769 23.7581 21.1356 23.7471 21.185C23.616 21.6919 23.2806 22.0347 22.9259 22.3912C23.1697 21.2932 22.9332 20.1805 22.1229 19.3923C21.881 19.1576 21.5711 18.9257 21.2568 18.813L21.3979 18.9679C22.0294 19.9514 21.5693 21.6029 20.6216 22.2198C20.5886 22.2409 20.3897 22.3628 20.3686 22.3417C20.2696 21.9448 20.2045 21.537 20.2256 21.1236C20.2302 21.0319 20.2632 20.9339 20.2494 20.8422C19.9772 21.0842 19.7188 21.3463 19.5409 21.6708C19.079 22.5039 19.2431 23.4544 19.6042 24.2866C19.6748 24.4461 19.7637 24.5982 19.8297 24.7586C19.0716 24.6459 18.9287 24.0308 18.8608 23.3645C18.8581 23.3407 18.8746 23.3178 18.837 23.3242C18.4356 23.7229 17.9947 24.2343 17.8682 24.8072C17.6336 25.8558 18.563 26.71 19.1872 27.4021L19.2504 26.8228C19.3182 26.447 19.485 26.095 19.7197 25.7999C19.7618 25.7458 20.0222 25.4525 20.0597 25.436C20.1019 25.4177 20.1001 25.5561 20.1065 25.5818C20.2119 26.063 20.5052 26.4993 20.8452 26.8375C20.7655 26.2646 20.6601 25.7394 20.7746 25.1602C20.9506 24.2729 21.5134 23.4077 22.1798 22.8229C21.9479 23.5223 21.9075 24.3508 22.1284 25.0593C22.3493 25.7724 22.87 26.3004 23.4428 26.7394C23.7269 26.2986 23.8415 25.7119 23.7526 25.1932C24.4217 25.5075 24.7123 26.3196 24.7847 27.0236C24.7874 27.0474 24.7709 27.0703 24.8085 27.0639C25.1201 26.8155 25.4373 26.5387 25.6627 26.2051C26.3291 25.2216 26.2943 23.91 25.5711 22.9714C25.5152 22.899 25.275 22.6268 25.2072 22.5984L25.2026 22.6013Z" fill="#006BFF"/>
</svg>
