<svg width="44" height="44" viewBox="0 0 44 44" fill="none" xmlns="http://www.w3.org/2000/svg">
<rect width="44.0001" height="44" rx="10" fill="#016BFF" fill-opacity="0.1"/>
<path d="M16.4446 14.5928H12.3704C12.1657 14.5928 12 14.7585 12 14.9631V20.1483C12 20.353 12.1657 20.5187 12.3704 20.5187H31.6296C31.8343 20.5187 32 20.353 32 20.1483V14.9631C32 14.7585 31.8343 14.5928 31.6296 14.5928H27.5554V19.0372C27.5554 19.2418 27.3897 19.4076 27.1851 19.4076H16.8147C16.6101 19.4076 16.4443 19.2418 16.4443 19.0372L16.4446 14.5928Z" fill="#006BFF"/>
<path d="M30.1488 20.8887H13.8525V29.7776H18.1119V22.7404C18.1119 22.6386 18.1952 22.5552 18.297 22.5552H25.7045C25.8063 22.5552 25.8896 22.6386 25.8896 22.7404V29.7776H30.149L30.1488 20.8887Z" fill="#006BFF"/>
<path d="M12.3704 30.1479H31.6296C31.8343 30.1479 32 30.3137 32 30.5183V31.6294C32 31.8341 31.8343 31.9998 31.6296 31.9998H12.3704C12.1657 31.9998 12 31.8341 12 31.6294V30.5183C12 30.3137 12.1657 30.1479 12.3704 30.1479Z" fill="#006BFF"/>
<path fill-rule="evenodd" clip-rule="evenodd" d="M21.8156 29.7776H18.4824V22.9258H21.8156V29.7776ZM20.8897 25.148C20.9916 25.148 21.0749 25.2313 21.0749 25.3332V26.0739C21.0749 26.1758 20.9916 26.2591 20.8897 26.2591C20.7879 26.2591 20.7045 26.1758 20.7045 26.0739V25.3332C20.7045 25.2313 20.7879 25.148 20.8897 25.148Z" fill="#006BFF"/>
<path fill-rule="evenodd" clip-rule="evenodd" d="M25.5188 29.7776H22.1855V22.9258H25.5188V29.7776ZM23.2965 25.3331C23.2965 25.2313 23.2132 25.1479 23.1114 25.1479C23.0095 25.1479 22.9262 25.2313 22.9262 25.3331V26.0739C22.9262 26.1757 23.0095 26.2591 23.1114 26.2591C23.2132 26.2591 23.2965 26.1757 23.2965 26.0739V25.3331Z" fill="#006BFF"/>
<path d="M23.6672 15.1484V15.8892H20.334V15.1484H23.6672Z" fill="#006BFF"/>
<path d="M24.0371 14.2223C24.0371 14.1204 24.1204 14.0371 24.2223 14.0371H24.963C25.0649 14.0371 25.1482 14.1204 25.1482 14.2223V16.815C25.1482 16.9169 25.0649 17.0002 24.963 17.0002H24.2223C24.1204 17.0002 24.0371 16.9169 24.0371 16.815V14.2223Z" fill="#006BFF"/>
<path d="M19.9627 14.2223C19.9627 14.1204 19.8793 14.0371 19.7775 14.0371H19.0367C18.9349 14.0371 18.8516 14.1204 18.8516 14.2223V16.815C18.8516 16.9169 18.9349 17.0002 19.0367 17.0002H19.7775C19.8793 17.0002 19.9627 16.9169 19.9627 16.815V14.2223Z" fill="#006BFF"/>
<path fill-rule="evenodd" clip-rule="evenodd" d="M27.1858 12.3704C27.1858 12.1657 27.0201 12 26.8154 12H17.1858C16.9812 12 16.8154 12.1657 16.8154 12.3704V19.037H27.1858V12.3704ZM19.0377 13.6667C18.7312 13.6667 18.4821 13.9158 18.4821 14.2222V16.815C18.4821 17.1214 18.7312 17.3705 19.0377 17.3705H19.7784C20.0849 17.3705 20.334 17.1214 20.334 16.815V16.2594H23.6672V16.815C23.6672 17.1214 23.9163 17.3705 24.2227 17.3705H24.9635C25.27 17.3705 25.5191 17.1214 25.5191 16.815V14.2222C25.5191 13.9158 25.27 13.6667 24.9635 13.6667H24.2227C23.9163 13.6667 23.6672 13.9158 23.6672 14.2222V14.7778H20.334V14.2222C20.334 13.9158 20.0849 13.6667 19.7784 13.6667H19.0377Z" fill="#006BFF"/>
</svg>
