<svg width="43" height="44" viewBox="0 0 43 44" fill="none" xmlns="http://www.w3.org/2000/svg">
<rect width="42.5612" height="44" rx="10" fill="#016BFF" fill-opacity="0.1"/>
<path d="M21.2815 29.3441C24.3412 29.3441 26.8304 26.8548 26.8304 23.7951C26.8304 20.7354 24.3411 18.2461 21.2815 18.2461C18.2217 18.2461 15.7324 20.7354 15.7324 23.7951C15.7324 26.8548 18.2217 29.3441 21.2815 29.3441ZM17.5932 23.6513C17.6662 21.7297 19.2382 20.1677 21.1602 20.106C22.5442 20.0616 23.764 20.7797 24.4321 21.8718L23.5273 22.3412C23.1934 22.5145 22.9837 22.8595 22.9837 23.2357V24.3543C22.9837 24.7306 23.1934 25.0755 23.5273 25.2488L24.4321 25.7183C23.7836 26.7784 22.6153 27.4859 21.2815 27.4859C19.1953 27.4861 17.5133 25.7553 17.5932 23.6513Z" fill="#006BFF"/>
<path d="M13.3174 32.6884C13.3174 33.3737 13.875 33.9312 14.5603 33.9312H28.0016C28.687 33.9312 29.2445 33.3737 29.2445 32.6884V31.5864H13.3174V32.6884Z" fill="#006BFF"/>
<path d="M13.3174 31.0818H29.2446V14.8047H13.3174V31.0818ZM21.281 17.7413C24.6189 17.7413 27.3345 20.457 27.3345 23.7948C27.3345 27.1327 24.6188 29.8483 21.281 29.8483C17.9431 29.8483 15.2275 27.1327 15.2275 23.7948C15.2275 20.457 17.9431 17.7413 21.281 17.7413Z" fill="#006BFF"/>
<path d="M28.0014 10.0688H17.5957V14.3002H29.2443V11.3117C29.2443 10.6264 28.6867 10.0688 28.0014 10.0688ZM20.2396 13.0099C19.7837 13.0099 19.4142 12.6404 19.4142 12.1845C19.4142 11.7287 19.7837 11.3592 20.2396 11.3592C20.6954 11.3592 21.0649 11.7287 21.0649 12.1845C21.0649 12.6403 20.6954 13.0099 20.2396 13.0099ZM23.3316 13.0099C22.8758 13.0099 22.5062 12.6404 22.5062 12.1845C22.5062 11.7287 22.8758 11.3592 23.3316 11.3592C23.7874 11.3592 24.1569 11.7287 24.1569 12.1845C24.1569 12.6403 23.7875 13.0099 23.3316 13.0099Z" fill="#006BFF"/>
<path d="M17.0914 10.0688H14.5603C13.8749 10.0688 13.3174 10.6264 13.3174 11.3117V14.3002H17.0915L17.0914 10.0688Z" fill="#006BFF"/>
</svg>
