<svg width="43" height="44" viewBox="0 0 43 44" fill="none" xmlns="http://www.w3.org/2000/svg">
<rect width="42.5429" height="44" rx="10" fill="#016BFF" fill-opacity="0.1"/>
<path d="M30.3481 22.8424C28.4775 22.8424 28.0098 24.949 28.0098 24.949C26.2024 24.949 25.3681 25.9012 24.9932 26.6343H32.657C32.8002 26.6343 32.9392 26.6596 33.0656 26.7059V20.7358C31.3804 20.7358 30.3481 22.8424 30.3481 22.8424Z" fill="#006BFF"/>
<path d="M16.6355 15.2587C17.5662 15.2587 18.3208 14.5042 18.3208 13.5735C18.3208 12.6427 17.5662 11.8882 16.6355 11.8882C15.7047 11.8882 14.9502 12.6427 14.9502 13.5735C14.9502 14.5042 15.7047 15.2587 16.6355 15.2587Z" fill="#006BFF"/>
<path d="M16.6352 11.0457C16.8669 11.0457 17.0565 10.8561 17.0565 10.6244V10.2031C17.0565 9.97133 16.8669 9.78174 16.6352 9.78174C16.4035 9.78174 16.2139 9.97133 16.2139 10.2031V10.6244C16.2139 10.8561 16.4035 11.0457 16.6352 11.0457Z" fill="#006BFF"/>
<path d="M14.2502 11.7874C14.3345 11.8717 14.4398 11.9096 14.5493 11.9096C14.6589 11.9096 14.7642 11.8675 14.8485 11.7874C15.0128 11.6231 15.0128 11.3577 14.8485 11.1934L14.5493 10.8942C14.385 10.7299 14.1196 10.7299 13.9553 10.8942C13.791 11.0585 13.791 11.324 13.9553 11.4883L14.2544 11.7874H14.2502Z" fill="#006BFF"/>
<path d="M13.2651 13.995H13.6864C13.9181 13.995 14.1077 13.8054 14.1077 13.5737C14.1077 13.3419 13.9181 13.1523 13.6864 13.1523H13.2651C13.0333 13.1523 12.8438 13.3419 12.8438 13.5737C12.8438 13.8054 13.0333 13.995 13.2651 13.995Z" fill="#006BFF"/>
<path d="M14.2505 15.3596L13.9514 15.6587C13.787 15.823 13.787 16.0884 13.9514 16.2528C14.0356 16.337 14.141 16.3749 14.2505 16.3749C14.36 16.3749 14.4654 16.3328 14.5496 16.2528L14.8488 15.9536C15.0131 15.7893 15.0131 15.5239 14.8488 15.3596C14.6845 15.1952 14.419 15.1952 14.2547 15.3596H14.2505Z" fill="#006BFF"/>
<path d="M16.2139 16.5229V16.9442C16.2139 17.1759 16.4035 17.3655 16.6352 17.3655C16.8669 17.3655 17.0565 17.1759 17.0565 16.9442V16.5229C17.0565 16.2912 16.8669 16.1016 16.6352 16.1016C16.4035 16.1016 16.2139 16.2912 16.2139 16.5229Z" fill="#006BFF"/>
<path d="M18.4211 15.3596C18.2568 15.5239 18.2568 15.7893 18.4211 15.9536L18.7202 16.2528C18.8045 16.337 18.9098 16.3749 19.0194 16.3749C19.1289 16.3749 19.2342 16.3328 19.3185 16.2528C19.4828 16.0884 19.4828 15.823 19.3185 15.6587L19.0194 15.3596C18.855 15.1952 18.5896 15.1952 18.4253 15.3596H18.4211Z" fill="#006BFF"/>
<path d="M19.1631 13.5737C19.1631 13.8054 19.3527 13.995 19.5844 13.995H20.0057C20.2375 13.995 20.427 13.8054 20.427 13.5737C20.427 13.3419 20.2375 13.1523 20.0057 13.1523H19.5844C19.3527 13.1523 19.1631 13.3419 19.1631 13.5737Z" fill="#006BFF"/>
<path d="M18.7199 11.9096C18.8295 11.9096 18.9348 11.8675 19.0191 11.7874L19.3182 11.4883C19.4825 11.324 19.4825 11.0585 19.3182 10.8942C19.1539 10.7299 18.8884 10.7299 18.7241 10.8942L18.425 11.1934C18.2607 11.3577 18.2607 11.6231 18.425 11.7874C18.5093 11.8717 18.6146 11.9096 18.7241 11.9096H18.7199Z" fill="#006BFF"/>
<path d="M23.3805 19.1982C23.3805 19.2192 23.3763 19.2403 23.3763 19.2614C23.3763 20.3104 24.1304 21.1573 25.0615 21.1573C25.209 21.1573 25.348 21.132 25.4829 21.0941V24.827C25.9295 24.5194 26.4898 24.2835 27.1681 24.1739V21.0899C27.303 21.1278 27.442 21.1531 27.5895 21.1531C28.5206 21.1531 29.2747 20.3062 29.2747 19.2571C29.2747 19.2361 29.2705 19.215 29.2705 19.194C29.9994 18.9833 30.5387 18.246 30.5387 17.3612C30.5387 16.4764 29.9994 15.7391 29.2705 15.5285C29.2705 15.5074 29.2747 15.4863 29.2747 15.4653C29.2747 14.4162 28.5206 13.5693 27.5895 13.5693C27.0839 13.5693 26.6331 13.8263 26.3255 14.2224C26.0179 13.8263 25.5671 13.5693 25.0615 13.5693C24.1304 13.5693 23.3763 14.4162 23.3763 15.4653C23.3763 15.4863 23.3805 15.5074 23.3805 15.5285C22.6516 15.7391 22.1123 16.4764 22.1123 17.3612C22.1123 18.246 22.6516 18.9833 23.3805 19.194V19.1982Z" fill="#006BFF"/>
<path d="M32.6579 27.4772H20.0056V26.2133H20.427C20.8904 26.2133 21.2696 25.8341 21.2696 25.3706V24.528C21.2696 24.0645 20.8904 23.6854 20.427 23.6854H19.163V22.8427H19.5843C20.0478 22.8427 20.427 22.4635 20.427 22.0001V20.3148C20.427 19.8514 20.0478 19.4722 19.5843 19.4722H12.0006C11.5371 19.4722 11.1579 19.8514 11.1579 20.3148V22.0001C11.1579 22.4635 11.5371 22.8427 12.0006 22.8427H12.4219V23.6854H11.1579C10.6945 23.6854 10.3153 24.0645 10.3153 24.528V25.3706C10.3153 25.8341 10.6945 26.2133 11.1579 26.2133H11.5793V27.4772H9.88134C9.65804 27.4772 9.47266 27.6668 9.47266 27.8986V33.797C9.47266 34.0288 9.65382 34.2183 9.88134 34.2183H32.6621C32.8854 34.2183 33.0708 34.0288 33.0708 33.797V27.8986C33.0708 27.6668 32.8896 27.4772 32.6621 27.4772H32.6579ZM13.2645 22.8427H18.3204V23.6854H13.2645V22.8427ZM14.103 30.6329L13.1718 31.8084C13.0918 31.9095 12.9696 31.9685 12.8432 31.9685C12.7168 31.9685 12.5946 31.9095 12.5146 31.8084L11.5835 30.6329C11.4402 30.4518 11.4697 30.1863 11.6509 30.0431C11.832 29.8956 12.0975 29.9293 12.2407 30.1105L12.4219 30.338V29.9546C12.4219 29.7481 12.6115 29.5838 12.8432 29.5838C13.0749 29.5838 13.2645 29.7524 13.2645 29.9546V30.338L13.4457 30.1105C13.5889 29.9293 13.8544 29.8956 14.0355 30.0431C14.2167 30.1863 14.2504 30.4518 14.103 30.6329ZM12.4219 27.4772V26.2133H19.163V27.4772H12.4219ZM22.5293 31.8969L21.5982 33.0724C21.5182 33.1735 21.396 33.2325 21.2696 33.2325C21.1432 33.2325 21.021 33.1735 20.941 33.0724L20.0099 31.8969C19.8666 31.7157 19.8961 31.4503 20.0773 31.307C20.2584 31.1596 20.5239 31.1933 20.6671 31.3744L20.8483 31.602V31.2312C20.8483 31.0205 21.0379 30.8478 21.2696 30.8478C21.5013 30.8478 21.6909 31.0205 21.6909 31.2312V31.602L21.8721 31.3744C22.0153 31.1933 22.2808 31.1596 22.4619 31.307C22.6431 31.4503 22.6768 31.7157 22.5293 31.8969ZM31.3771 30.6329L30.4459 31.8084C30.3659 31.9095 30.2437 31.9685 30.1173 31.9685C29.9909 31.9685 29.8687 31.9095 29.7887 31.8084L28.8576 30.6329C28.7143 30.4518 28.7438 30.1863 28.925 30.0431C29.1061 29.8956 29.3716 29.9293 29.5148 30.1105L29.696 30.338V29.9546C29.696 29.7481 29.8856 29.5838 30.1173 29.5838C30.349 29.5838 30.5386 29.7524 30.5386 29.9546V30.338L30.7198 30.1105C30.863 29.9293 31.1285 29.8956 31.3096 30.0431C31.4908 30.1863 31.5245 30.4518 31.3771 30.6329Z" fill="#006BFF"/>
</svg>
