<svg width="17" height="17" viewBox="0 0 17 17" fill="none" xmlns="http://www.w3.org/2000/svg">
<path d="M4.79167 0.625C4.79167 0.45924 4.72582 0.300269 4.60861 0.183058C4.4914 0.065848 4.33243 0 4.16667 0C4.00091 0 3.84194 0.065848 3.72473 0.183058C3.60751 0.300269 3.54167 0.45924 3.54167 0.625V1.94167C2.34167 2.0375 1.555 2.2725 0.976667 2.85167C0.3975 3.43 0.1625 4.2175 0.0658333 5.41667H16.6008C16.5042 4.21667 16.2692 3.43 15.69 2.85167C15.1117 2.2725 14.3242 2.0375 13.125 1.94083V0.625C13.125 0.45924 13.0592 0.300269 12.9419 0.183058C12.8247 0.065848 12.6658 0 12.5 0C12.3342 0 12.1753 0.065848 12.0581 0.183058C11.9408 0.300269 11.875 0.45924 11.875 0.625V1.88583C11.3208 1.875 10.6992 1.875 10 1.875H6.66667C5.9675 1.875 5.34583 1.875 4.79167 1.88583V0.625Z" fill="#016BFF"/>
<path fill-rule="evenodd" clip-rule="evenodd" d="M16.6667 8.54167C16.6667 7.8425 16.6667 7.22083 16.6558 6.66667H0.0108333C9.31323e-09 7.22083 0 7.8425 0 8.54167V10.2083C0 13.3508 -1.19209e-07 14.9225 0.976667 15.8983C1.9525 16.875 3.52417 16.875 6.66667 16.875H10C13.1425 16.875 14.7142 16.875 15.69 15.8983C16.6667 14.9225 16.6667 13.3508 16.6667 10.2083V8.54167Z" fill="#016BFF"/>
</svg>
