<svg width="16" height="19" viewBox="0 0 16 19" fill="none" xmlns="http://www.w3.org/2000/svg">
<path d="M7.51855 1L7.51863 0H7.51855V1ZM12.127 2.90918L12.8341 2.20208L12.8341 2.20207L12.127 2.90918ZM14.0361 7.51758H15.0361V7.51752L14.0361 7.51758ZM8.00781 17.1309L8.60881 17.9301C8.6268 17.9166 8.64432 17.9025 8.66136 17.8877L8.00781 17.1309ZM7.51855 17.2949V18.2949H7.51915L7.51855 17.2949ZM7.02832 17.1309L6.37477 17.8877C6.39181 17.9025 6.40933 17.9166 6.42732 17.9301L7.02832 17.1309ZM1 7.51758L0 7.51752V7.51758H1ZM2.90918 2.90918L2.20207 2.20207L2.20206 2.20208L2.90918 2.90918ZM7.51855 5.07324L7.51875 4.07324H7.51855V5.07324ZM5.07422 7.51758L4.07422 7.51743V7.51758H5.07422ZM7.51855 9.96191V10.9619H7.51875L7.51855 9.96191ZM9.96191 7.51758H10.9619V7.51743L9.96191 7.51758ZM7.51855 1L7.51848 2C8.98177 2.00011 10.3851 2.58151 11.4198 3.61629L12.127 2.90918L12.8341 2.20207C11.4243 0.792327 9.51239 0.000149131 7.51863 0L7.51855 1ZM12.127 2.90918L11.4198 3.61628C12.4546 4.65109 13.0361 6.05437 13.0361 7.51763L14.0361 7.51758L15.0361 7.51752C15.036 5.52371 14.2438 3.61183 12.8341 2.20208L12.127 2.90918ZM14.0361 7.51758H13.0361C13.0361 9.21434 12.076 11.0696 10.7946 12.7533C9.53635 14.4065 8.08693 15.7413 7.35427 16.374L8.00781 17.1309L8.66136 17.8877C9.44439 17.2116 11.0091 15.7738 12.3861 13.9645C13.7399 12.1857 15.0361 9.88869 15.0361 7.51758H14.0361ZM8.00781 17.1309L7.40681 16.3316C7.43743 16.3086 7.47603 16.2949 7.51796 16.2949L7.51855 17.2949L7.51915 18.2949C7.91402 18.2947 8.2961 18.1653 8.60881 17.9301L8.00781 17.1309ZM7.51855 17.2949V16.2949C7.5599 16.2949 7.59817 16.3082 7.62932 16.3316L7.02832 17.1309L6.42732 17.9301C6.74083 18.1659 7.12394 18.2949 7.51855 18.2949V17.2949ZM7.02832 17.1309L7.68187 16.374C6.9492 15.7413 5.49978 14.4065 4.24152 12.7533C2.96009 11.0696 2 9.21434 2 7.51758H1H0C0 9.88869 1.29622 12.1857 2.65003 13.9645C4.027 15.7738 5.59174 17.2116 6.37477 17.8877L7.02832 17.1309ZM1 7.51758L2 7.51763C2.00008 6.05437 2.58151 4.65109 3.6163 3.61628L2.90918 2.90918L2.20206 2.20208C0.792353 3.61183 0.000111878 5.52371 0 7.51752L1 7.51758ZM2.90918 2.90918L3.61629 3.61629C4.6511 2.58147 6.05504 2 7.51855 2V1V0C5.52467 0 3.61201 0.792138 2.20207 2.20207L2.90918 2.90918ZM7.51855 5.07324V4.07324C5.61631 4.07324 4.0745 5.61564 4.07422 7.51743L5.07422 7.51758L6.07422 7.51772C6.07434 6.71998 6.72117 6.07324 7.51855 6.07324V5.07324ZM5.07422 7.51758H4.07422C4.07422 9.4198 5.61633 10.9619 7.51855 10.9619V9.96191V8.96191C6.7209 8.96191 6.07422 8.31523 6.07422 7.51758H5.07422ZM7.51855 9.96191L7.51875 10.9619C9.42092 10.9615 10.9619 9.41931 10.9619 7.51758H9.96191H8.96191C8.96191 8.31539 8.31561 8.96176 7.51836 8.96191L7.51855 9.96191ZM9.96191 7.51758L10.9619 7.51743C10.9616 5.61613 9.42094 4.07361 7.51875 4.07324L7.51855 5.07324L7.51836 6.07324C8.31534 6.0734 8.9618 6.71982 8.96191 7.51772L9.96191 7.51758Z" fill="#94A3B8"/>
</svg>
