<svg width="15" height="17" viewBox="0 0 15 17" fill="none" xmlns="http://www.w3.org/2000/svg">
<path d="M7.5 0C9.48912 0 11.3968 0.790176 12.8033 2.1967C14.2098 3.60322 15 5.51088 15 7.5C15 10.0617 13.6033 12.1583 12.1317 13.6625C11.3963 14.4057 10.594 15.0797 9.735 15.6758L9.38 15.9175L9.21333 16.0283L8.89917 16.2283L8.61917 16.3992L8.2725 16.6008C8.03709 16.7348 7.77087 16.8053 7.5 16.8053C7.22913 16.8053 6.96291 16.7348 6.7275 16.6008L6.38083 16.3992L5.9475 16.1325L5.7875 16.0283L5.44583 15.8008C4.51915 15.1736 3.65589 14.4574 2.86833 13.6625C1.39667 12.1567 0 10.0617 0 7.5C0 5.51088 0.790176 3.60322 2.1967 2.1967C3.60322 0.790176 5.51088 0 7.5 0ZM7.5 5C7.1717 5 6.84661 5.06466 6.54329 5.1903C6.23998 5.31594 5.96438 5.50009 5.73223 5.73223C5.50009 5.96438 5.31594 6.23998 5.1903 6.54329C5.06466 6.84661 5 7.1717 5 7.5C5 7.82831 5.06466 8.15339 5.1903 8.45671C5.31594 8.76002 5.50009 9.03562 5.73223 9.26777C5.96438 9.49991 6.23998 9.68406 6.54329 9.8097C6.84661 9.93534 7.1717 10 7.5 10C8.16304 10 8.79893 9.73661 9.26777 9.26777C9.73661 8.79893 10 8.16304 10 7.5C10 6.83696 9.73661 6.20107 9.26777 5.73223C8.79893 5.26339 8.16304 5 7.5 5Z" fill="#006BFF"/>
</svg>
