<svg width="20" height="20" viewBox="0 0 20 20" fill="none" xmlns="http://www.w3.org/2000/svg">
<path d="M3.23818 0H0.747272C0.334728 0 0 0.334728 0 0.747272V3.23818C0 3.65072 0.334728 3.98545 0.747272 3.98545H3.23818C3.65072 3.98545 3.98545 3.65072 3.98545 3.23818V0.747272C3.98545 0.334728 3.65072 0 3.23818 0ZM2.74 2.74H1.24545V1.24545H2.74V2.74ZM3.23818 15.9418H0.747272C0.334728 15.9418 0 16.2765 0 16.6891V19.18C0 19.5925 0.334728 19.9272 0.747272 19.9272H3.23818C3.65072 19.9272 3.98545 19.5925 3.98545 19.18V16.6891C3.98545 16.2765 3.65072 15.9418 3.23818 15.9418ZM2.74 18.6818H1.24545V17.1873H2.74V18.6818ZM19.18 0H16.6891C16.2765 0 15.9418 0.334728 15.9418 0.747272V3.23818C15.9418 3.65072 16.2765 3.98545 16.6891 3.98545H19.18C19.5925 3.98545 19.9272 3.65072 19.9272 3.23818V0.747272C19.9272 0.334728 19.5925 0 19.18 0ZM18.6818 2.74H17.1873V1.24545H18.6818V2.74ZM19.18 15.9418H16.6891C16.2765 15.9418 15.9418 16.2765 15.9418 16.6891V19.18C15.9418 19.5925 16.2765 19.9272 16.6891 19.9272H19.18C19.5925 19.9272 19.9272 19.5925 19.9272 19.18V16.6891C19.9272 16.2765 19.5925 15.9418 19.18 15.9418ZM18.6818 18.6818H17.1873V17.1873H18.6818V18.6818ZM4.91456 2.43362C4.79974 2.31685 4.7326 2.15727 4.7326 1.99285C4.7326 1.95295 4.73747 1.91112 4.74525 1.87025C4.75304 1.83036 4.76471 1.79046 4.78028 1.75349C4.79585 1.71651 4.81531 1.68149 4.83769 1.64646C4.86007 1.61435 4.88731 1.58224 4.91456 1.55207C4.94472 1.52483 4.97488 1.49758 5.00894 1.47521C5.04396 1.45283 5.07899 1.43239 5.11597 1.4178C5.15294 1.4032 5.19284 1.39055 5.23273 1.38277C5.31252 1.36526 5.39717 1.36526 5.47696 1.38277C5.51685 1.39056 5.55674 1.40223 5.59372 1.4178C5.63069 1.43337 5.66572 1.45283 5.70075 1.47521C5.73286 1.49759 5.76497 1.52483 5.79513 1.55207C5.82238 1.58224 5.84962 1.6124 5.87297 1.64646C5.89535 1.68148 5.91579 1.71651 5.93038 1.75349C5.94595 1.79046 5.95763 1.83036 5.96541 1.87025C5.97319 1.91014 5.97806 1.95198 5.97806 1.99285C5.97806 2.03274 5.97319 2.07458 5.96541 2.11545C5.95762 2.15534 5.94595 2.19524 5.93038 2.23221C5.91579 2.26919 5.89535 2.30421 5.87297 2.33924C5.85059 2.37135 5.82335 2.40346 5.79513 2.43362C5.67837 2.54844 5.51879 2.61558 5.35437 2.61558C5.18994 2.61558 5.03035 2.54844 4.9136 2.43362L4.91456 2.43362ZM11.645 1.99285C11.645 1.64938 11.9242 1.37012 12.2677 1.37012C12.6112 1.37012 12.8904 1.64938 12.8904 1.99285C12.8904 2.33632 12.6112 2.61558 12.2677 2.61558C11.9242 2.61558 11.645 2.33632 11.645 1.99285ZM9.3409 1.99285C9.3409 1.64938 9.62015 1.37012 9.96362 1.37012C10.3071 1.37012 10.5863 1.64938 10.5863 1.99285C10.5863 2.33632 10.3071 2.61558 9.96362 2.61558C9.62015 2.61558 9.3409 2.33632 9.3409 1.99285ZM7.03681 1.99285C7.03681 1.64938 7.31606 1.37012 7.65954 1.37012C8.00301 1.37012 8.28226 1.64938 8.28226 1.99285C8.28226 2.33632 8.00301 2.61558 7.65954 2.61558C7.31606 2.61558 7.03681 2.33632 7.03681 1.99285ZM14.1309 2.43362C14.0161 2.31685 13.949 2.15727 13.949 1.99285C13.949 1.95295 13.9538 1.91112 13.9616 1.87025C13.9694 1.83036 13.9811 1.79046 13.9966 1.75349C14.0122 1.71651 14.0317 1.68149 14.054 1.64646C14.0764 1.61143 14.1037 1.58224 14.1309 1.55207C14.1611 1.52483 14.1912 1.49758 14.2253 1.47521C14.2603 1.45283 14.2953 1.43239 14.3323 1.4178C14.3693 1.4032 14.4092 1.39055 14.4491 1.38277C14.5289 1.36526 14.6135 1.36526 14.6933 1.38277C14.7332 1.39056 14.7731 1.40223 14.8101 1.4178C14.847 1.43337 14.8821 1.45283 14.9171 1.47521C14.9492 1.49759 14.9813 1.52483 15.0115 1.55207C15.0387 1.58224 15.066 1.6124 15.0893 1.64646C15.1117 1.68148 15.1321 1.71651 15.1467 1.75349C15.1623 1.79046 15.174 1.83036 15.1818 1.87025C15.1895 1.91014 15.1944 1.95198 15.1944 1.99285C15.1944 2.15729 15.1273 2.31687 15.0125 2.43362C14.9823 2.46086 14.9502 2.4881 14.9181 2.51146C14.883 2.53384 14.848 2.55427 14.811 2.56886C14.7741 2.58443 14.7332 2.59611 14.6943 2.60389C14.6544 2.61168 14.6125 2.61654 14.5717 2.61654C14.4072 2.61654 14.2477 2.5494 14.1309 2.43459L14.1309 2.43362ZM5.96547 17.812C5.97325 17.8519 5.97812 17.8937 5.97812 17.9346C5.97812 18.099 5.91098 18.2586 5.79617 18.3753C5.6794 18.4902 5.51982 18.5573 5.3554 18.5573C5.31551 18.5573 5.27367 18.5524 5.2328 18.5446C5.19291 18.5369 5.15301 18.5252 5.11604 18.5096C5.07906 18.495 5.04404 18.4746 5.00901 18.4522C4.97398 18.4298 4.94479 18.4026 4.91462 18.3744C4.79981 18.2576 4.73267 18.098 4.73267 17.9336C4.73267 17.8937 4.73754 17.8519 4.74532 17.811C4.7531 17.7711 4.76478 17.7312 4.78035 17.6942C4.79592 17.6573 4.81537 17.6222 4.83776 17.5872C4.86014 17.5551 4.88738 17.523 4.91462 17.4928C5.1462 17.2612 5.5646 17.2612 5.79618 17.4928C5.82342 17.523 5.85067 17.5551 5.87402 17.5872C5.8964 17.6222 5.91683 17.6573 5.93143 17.6942C5.947 17.7312 5.95867 17.7711 5.96645 17.811L5.96547 17.812ZM12.8904 17.9346C12.8904 18.278 12.6112 18.5573 12.2677 18.5573C11.9242 18.5573 11.645 18.278 11.645 17.9346C11.645 17.5911 11.9242 17.3118 12.2677 17.3118C12.6112 17.3118 12.8904 17.5911 12.8904 17.9346ZM8.28226 17.9346C8.28226 18.278 8.00301 18.5573 7.65954 18.5573C7.31606 18.5573 7.03681 18.278 7.03681 17.9346C7.03681 17.5911 7.31606 17.3118 7.65954 17.3118C8.00301 17.3118 8.28226 17.5911 8.28226 17.9346ZM10.5863 17.9346C10.5863 18.278 10.3071 18.5573 9.96362 18.5573C9.62015 18.5573 9.3409 18.278 9.3409 17.9346C9.3409 17.5911 9.62015 17.3118 9.96362 17.3118C10.3071 17.3118 10.5863 17.5911 10.5863 17.9346ZM15.1818 17.812C15.1896 17.8519 15.1945 17.8937 15.1945 17.9346C15.1945 17.9745 15.1896 18.0163 15.1818 18.0572C15.174 18.0971 15.1624 18.137 15.1468 18.1739C15.1322 18.2109 15.1118 18.2459 15.0894 18.281C15.067 18.3131 15.0398 18.3452 15.0115 18.3753C14.9814 18.4026 14.9493 18.4298 14.9172 18.4532C14.8821 18.4756 14.8471 18.496 14.8101 18.5106C14.7732 18.5262 14.7323 18.5378 14.6934 18.5456C14.6535 18.5534 14.6116 18.5583 14.5708 18.5583C14.5309 18.5583 14.489 18.5534 14.4482 18.5456C14.4083 18.5378 14.3684 18.5262 14.3314 18.5106C14.2944 18.496 14.2594 18.4756 14.2244 18.4532C14.1894 18.4308 14.1602 18.4036 14.13 18.3753C14.0152 18.2586 13.948 18.099 13.948 17.9346C13.948 17.8947 13.9529 17.8528 13.9607 17.812C13.9685 17.7721 13.9802 17.7322 13.9957 17.6952C14.0113 17.6582 14.0307 17.6232 14.0531 17.5882C14.0755 17.5561 14.1027 17.524 14.13 17.4938C14.3616 17.2622 14.78 17.2622 15.0115 17.4938C15.0388 17.524 15.066 17.5561 15.0894 17.5882C15.1118 17.6232 15.1322 17.6582 15.1468 17.6952C15.1624 17.7322 15.174 17.7721 15.1818 17.812ZM17.9345 5.97817C17.7701 5.97817 17.6105 5.91104 17.4938 5.79622C17.3789 5.67946 17.3118 5.51988 17.3118 5.35545C17.3118 5.19103 17.3789 5.03144 17.4938 4.91469C17.5239 4.88744 17.5541 4.8602 17.5881 4.83782C17.6232 4.81544 17.6582 4.79501 17.6952 4.78041C17.7321 4.76582 17.772 4.75317 17.8119 4.74539C18.0133 4.70257 18.2303 4.77068 18.3743 4.91469C18.4016 4.94485 18.4288 4.97502 18.4522 5.00907C18.4745 5.0441 18.4921 5.07913 18.5096 5.11611C18.5251 5.15308 18.5368 5.19297 18.5446 5.23287C18.5524 5.27276 18.5573 5.3146 18.5573 5.35547C18.5573 5.51991 18.4901 5.67948 18.3753 5.79623C18.3451 5.82348 18.313 5.85072 18.2809 5.87407C18.2459 5.89645 18.2109 5.91397 18.1739 5.93148C18.1369 5.94705 18.096 5.95873 18.0571 5.96651C18.0172 5.97429 17.9754 5.97916 17.9345 5.97916L17.9345 5.97817ZM17.3118 12.2677C17.3118 11.9242 17.5911 11.645 17.9345 11.645C18.278 11.645 18.5572 11.9242 18.5572 12.2677C18.5572 12.6112 18.278 12.8904 17.9345 12.8904C17.5911 12.8904 17.3118 12.6112 17.3118 12.2677ZM17.3118 9.96362C17.3118 9.62015 17.5911 9.3409 17.9345 9.3409C18.278 9.3409 18.5572 9.62015 18.5572 9.96362C18.5572 10.3071 18.278 10.5863 17.9345 10.5863C17.5911 10.5863 17.3118 10.3071 17.3118 9.96362ZM17.3118 7.65954C17.3118 7.31606 17.5911 7.03681 17.9345 7.03681C18.278 7.03681 18.5572 7.31606 18.5572 7.65954C18.5572 8.00301 18.278 8.28226 17.9345 8.28226C17.5911 8.28226 17.3118 8.00301 17.3118 7.65954ZM17.3118 14.5718C17.3118 14.5319 17.3167 14.4901 17.3244 14.4492C17.3322 14.4093 17.3439 14.3694 17.3595 14.3324C17.375 14.2955 17.3945 14.2604 17.4169 14.2254C17.4393 14.1933 17.4665 14.1612 17.4937 14.131C17.5239 14.1038 17.556 14.0765 17.5881 14.0542C17.6232 14.0318 17.6582 14.0113 17.6952 13.9967C17.7321 13.9822 17.772 13.9695 17.8119 13.9617C18.0133 13.9189 18.2303 13.987 18.3743 14.131C18.4016 14.1612 18.4288 14.1933 18.4522 14.2254C18.4745 14.2604 18.495 14.2955 18.5096 14.3324C18.5251 14.3694 18.5368 14.4093 18.5446 14.4492C18.5524 14.4891 18.5572 14.5309 18.5572 14.5718C18.5572 14.6117 18.5524 14.6535 18.5446 14.6944C18.5368 14.7343 18.5251 14.7742 18.5096 14.8112C18.495 14.8481 18.4745 14.8832 18.4522 14.9182C18.4298 14.9503 18.4025 14.9824 18.3743 15.0126C18.3442 15.0398 18.312 15.0671 18.2799 15.0904C18.2449 15.1128 18.2099 15.1332 18.1729 15.1478C18.1359 15.1634 18.0951 15.1751 18.0561 15.1829C18.0162 15.1906 17.9744 15.1955 17.9335 15.1955C17.8936 15.1955 17.8518 15.1906 17.8109 15.1829C17.771 15.1751 17.7312 15.1634 17.6942 15.1478C17.6572 15.1332 17.6222 15.1128 17.5872 15.0904C17.555 15.068 17.5229 15.0408 17.4928 15.0126C17.4655 14.9824 17.4383 14.9503 17.4159 14.9182C17.3935 14.8832 17.3731 14.8481 17.3585 14.8112C17.3439 14.7742 17.3312 14.7333 17.3235 14.6944C17.3157 14.6545 17.3108 14.6127 17.3108 14.5718L17.3118 14.5718ZM1.99272 5.97817C1.82828 5.97817 1.66871 5.91104 1.55196 5.79622C1.43714 5.67946 1.37001 5.51988 1.37001 5.35545C1.37001 5.31556 1.37487 5.27372 1.38265 5.23285C1.39044 5.19296 1.40211 5.15307 1.41768 5.11609C1.43325 5.07912 1.45271 5.04409 1.47509 5.00906C1.49747 4.97403 1.52471 4.94484 1.55196 4.91468C1.69596 4.77067 1.91294 4.70256 2.11532 4.74538C2.15522 4.75316 2.19511 4.76483 2.23209 4.7804C2.26906 4.79597 2.30409 4.81543 2.33912 4.83781C2.37123 4.86019 2.40334 4.88743 2.4335 4.91468C2.46075 4.94484 2.48799 4.975 2.51134 5.00906C2.53372 5.04409 2.55124 5.07912 2.56875 5.11609C2.58432 5.15307 2.59599 5.19296 2.60378 5.23285C2.61156 5.27275 2.61643 5.31459 2.61643 5.35545C2.61643 5.51989 2.54929 5.67947 2.43447 5.79622C2.31771 5.91103 2.15813 5.97817 1.99371 5.97817L1.99272 5.97817ZM1.37 12.2677C1.37 11.9242 1.64925 11.645 1.99272 11.645C2.3362 11.645 2.61545 11.9242 2.61545 12.2677C2.61545 12.6112 2.3362 12.8904 1.99272 12.8904C1.64925 12.8904 1.37 12.6112 1.37 12.2677ZM1.37 7.65954C1.37 7.31606 1.64925 7.03681 1.99272 7.03681C2.3362 7.03681 2.61545 7.31606 2.61545 7.65954C2.61545 8.00301 2.3362 8.28226 1.99272 8.28226C1.64925 8.28226 1.37 8.00301 1.37 7.65954ZM1.37 9.96362C1.37 9.62015 1.64925 9.3409 1.99272 9.3409C2.3362 9.3409 2.61545 9.62015 2.61545 9.96362C2.61545 10.3071 2.3362 10.5863 1.99272 10.5863C1.64925 10.5863 1.37 10.3071 1.37 9.96362ZM1.37 14.5718C1.37 14.5319 1.37486 14.4901 1.38265 14.4492C1.39043 14.4093 1.40211 14.3694 1.41767 14.3324C1.43324 14.2955 1.4527 14.2604 1.47508 14.2254C1.49746 14.1933 1.52471 14.1612 1.55195 14.131C1.58211 14.1038 1.61228 14.0765 1.64633 14.0542C1.68136 14.0318 1.71639 14.0113 1.75336 13.9967C1.79034 13.9822 1.83023 13.9695 1.87012 13.9617C2.07154 13.9189 2.28852 13.987 2.43252 14.131C2.45977 14.1612 2.48701 14.1933 2.51036 14.2254C2.53274 14.2604 2.55318 14.2955 2.56777 14.3324C2.58334 14.3694 2.59502 14.4093 2.6028 14.4492C2.61058 14.4891 2.61545 14.5309 2.61545 14.5718C2.61545 14.6117 2.61058 14.6535 2.6028 14.6944C2.59501 14.7343 2.58334 14.7742 2.56777 14.8112C2.55026 14.8481 2.53274 14.8832 2.51036 14.9182C2.48798 14.9503 2.46074 14.9824 2.43252 15.0126C2.31576 15.1274 2.15618 15.1945 1.99176 15.1945C1.95186 15.1945 1.91002 15.1897 1.86916 15.1819C1.82926 15.1741 1.78937 15.1624 1.75239 15.1469C1.71542 15.1323 1.68039 15.1118 1.64536 15.0894C1.61033 15.0671 1.58114 15.0398 1.55098 15.0116C1.52374 14.9814 1.49649 14.9493 1.47411 14.9172C1.45173 14.8822 1.4313 14.8472 1.41671 14.8102C1.40211 14.7732 1.38946 14.7323 1.38168 14.6934C1.37389 14.6535 1.36903 14.6117 1.36903 14.5708L1.37 14.5718ZM15.5682 4.98181V7.26839C15.5682 7.61283 15.2899 7.89111 14.9454 7.89111C14.601 7.89111 14.3227 7.61283 14.3227 7.26839V6.48415L10.8442 9.9627L14.3227 13.4413V12.657C14.3227 12.3126 14.601 12.0343 14.9454 12.0343C15.2899 12.0343 15.5682 12.3126 15.5682 12.657V14.9436C15.5682 15.288 15.2899 15.5663 14.9454 15.5663H12.6589C12.3144 15.5663 12.0361 15.288 12.0361 14.9436C12.0361 14.5991 12.3144 14.3209 12.6589 14.3209H13.4431L9.96455 10.8423L6.48599 14.3209H7.27023C7.61467 14.3209 7.89296 14.5991 7.89296 14.9436C7.89296 15.288 7.61467 15.5663 7.27023 15.5663H4.98365C4.63921 15.5663 4.36093 15.288 4.36093 14.9436V12.657C4.36093 12.3126 4.63921 12.0343 4.98365 12.0343C5.3281 12.0343 5.60638 12.3126 5.60638 12.657V13.4413L9.08493 9.9627L5.60638 6.48415V7.26839C5.60638 7.61283 5.3281 7.89111 4.98365 7.89111C4.63921 7.89111 4.36093 7.61283 4.36093 7.26839V4.98181C4.36093 4.63737 4.63921 4.35909 4.98365 4.35909H7.27023C7.61467 4.35909 7.89296 4.63737 7.89296 4.98181C7.89296 5.32625 7.61467 5.60454 7.27023 5.60454H6.48599L9.96455 9.08309L13.4431 5.60454H12.6589C12.3144 5.60454 12.0361 5.32625 12.0361 4.98181C12.0361 4.63737 12.3144 4.35909 12.6589 4.35909H14.9454C15.2899 4.35909 15.5682 4.63737 15.5682 4.98181Z" fill="#006BFF"/>
</svg>
