<svg width="47" height="44" viewBox="0 0 47 44" fill="none" xmlns="http://www.w3.org/2000/svg">
<rect width="46.7972" height="44" rx="10" fill="#016BFF" fill-opacity="0.1"/>
<path d="M23.3984 32C28.9213 32 33.3984 27.5228 33.3984 22C33.3984 16.4772 28.9213 12 23.3984 12C17.8756 12 13.3984 16.4772 13.3984 22C13.3984 27.5228 17.8756 32 23.3984 32Z" fill="#006BFF"/>
<path d="M20.3984 27V17H24.3984C25.1941 17 25.9571 17.3161 26.5198 17.8787C27.0824 18.4413 27.3984 19.2044 27.3984 20C27.3984 20.7956 27.0824 21.5587 26.5198 22.1213C25.9571 22.6839 25.1941 23 24.3984 23H20.3984" stroke="white" stroke-width="1.4" stroke-linecap="round" stroke-linejoin="round"/>
</svg>
