<svg width="52" height="35" viewBox="0 0 52 35" fill="none" xmlns="http://www.w3.org/2000/svg">
<path d="M0 19C0 17.8954 0.895431 17 2 17C3.10457 17 4 17.8954 4 19V35H0V19Z" fill="url(#paint0_linear_1_5694)"/>
<path d="M8 2C8 0.89543 8.89543 0 10 0C11.1046 0 12 0.895431 12 2V35H8V2Z" fill="url(#paint1_linear_1_5694)"/>
<path d="M16 15C16 13.8954 16.8954 13 18 13C19.1046 13 20 13.8954 20 15V35H16V15Z" fill="url(#paint2_linear_1_5694)"/>
<path d="M24 15C24 13.8954 24.8954 13 26 13C27.1046 13 28 13.8954 28 15V35H24V15Z" fill="url(#paint3_linear_1_5694)"/>
<path d="M32 6C32 4.89543 32.8954 4 34 4C35.1046 4 36 4.89543 36 6V35H32V6Z" fill="url(#paint4_linear_1_5694)"/>
<path d="M40 17C40 15.8954 40.8954 15 42 15C43.1046 15 44 15.8954 44 17V35H40V17Z" fill="url(#paint5_linear_1_5694)"/>
<path d="M48 15C48 13.8954 48.8954 13 50 13C51.1046 13 52 13.8954 52 15V35H48V15Z" fill="url(#paint6_linear_1_5694)"/>
<defs>
<linearGradient id="paint0_linear_1_5694" x1="0" y1="17" x2="7.62353" y2="18.6941" gradientUnits="userSpaceOnUse">
<stop stop-color="#FFAC82"/>
<stop offset="1" stop-color="#FF5630"/>
</linearGradient>
<linearGradient id="paint1_linear_1_5694" x1="8" y1="0" x2="15.8969" y2="0.902498" gradientUnits="userSpaceOnUse">
<stop stop-color="#FFAC82"/>
<stop offset="1" stop-color="#FF5630"/>
</linearGradient>
<linearGradient id="paint2_linear_1_5694" x1="16" y1="13" x2="23.744" y2="14.408" gradientUnits="userSpaceOnUse">
<stop stop-color="#FFAC82"/>
<stop offset="1" stop-color="#FF5630"/>
</linearGradient>
<linearGradient id="paint3_linear_1_5694" x1="24" y1="13" x2="31.744" y2="14.408" gradientUnits="userSpaceOnUse">
<stop stop-color="#FFAC82"/>
<stop offset="1" stop-color="#FF5630"/>
</linearGradient>
<linearGradient id="paint4_linear_1_5694" x1="32" y1="4" x2="39.869" y2="5.01535" gradientUnits="userSpaceOnUse">
<stop stop-color="#FFAC82"/>
<stop offset="1" stop-color="#FF5630"/>
</linearGradient>
<linearGradient id="paint5_linear_1_5694" x1="40" y1="15" x2="47.6923" y2="16.5385" gradientUnits="userSpaceOnUse">
<stop stop-color="#FFAC82"/>
<stop offset="1" stop-color="#FF5630"/>
</linearGradient>
<linearGradient id="paint6_linear_1_5694" x1="48" y1="13" x2="55.744" y2="14.408" gradientUnits="userSpaceOnUse">
<stop stop-color="#FFAC82"/>
<stop offset="1" stop-color="#FF5630"/>
</linearGradient>
</defs>
</svg>
