<svg width="15" height="16" viewBox="0 0 15 16" fill="none" xmlns="http://www.w3.org/2000/svg">
<path d="M8.874 11.6544C9.0289 11.7303 9.2034 11.7476 9.36877 11.7036C9.53414 11.6595 9.6805 11.5567 9.78375 11.412L10.05 11.04C10.1897 10.8413 10.3709 10.68 10.5792 10.5689C10.7875 10.4578 11.0171 10.4 11.25 10.4H13.5C13.8978 10.4 14.2794 10.5686 14.5607 10.8686C14.842 11.1687 15 11.5757 15 12V14.4C15 14.8243 14.842 15.2313 14.5607 15.5314C14.2794 15.8314 13.8978 16 13.5 16C9.91958 16 6.4858 14.4829 3.95406 11.7823C1.42232 9.08181 0 5.41912 0 1.6C0 1.17565 0.158035 0.768687 0.43934 0.468629C0.720644 0.168571 1.10218 0 1.5 0H3.75C4.14782 0 4.52936 0.168571 4.81066 0.468629C5.09196 0.768687 5.25 1.17565 5.25 1.6V4C5.25 4.24839 5.19578 4.49337 5.09164 4.71554C4.9875 4.93771 4.83629 5.13097 4.65 5.28L4.299 5.5608C4.16131 5.67294 4.06426 5.83247 4.02434 6.01228C3.98442 6.19209 4.00409 6.3811 4.08 6.5472C5.10501 8.76789 6.79082 10.5638 8.874 11.6544Z" fill="#016BFF"/>
</svg>
