<svg width="15" height="15" viewBox="0 0 15 15" fill="none" xmlns="http://www.w3.org/2000/svg">
<path d="M7.48242 0.416016C9.55594 0.416016 11.2352 2.09145 11.2354 4.15625C11.2354 6.22119 9.55605 7.89746 7.48242 7.89746C5.40892 7.89724 3.73047 6.22105 3.73047 4.15625C3.73066 2.09159 5.40903 0.416235 7.48242 0.416016ZM7.48242 1.24707C5.87295 1.24729 4.56659 2.5485 4.56641 4.15625C4.56641 5.76415 5.87283 7.06619 7.48242 7.06641C9.09213 7.06641 10.3994 5.76428 10.3994 4.15625C10.3992 2.54838 9.09201 1.24707 7.48242 1.24707Z" fill="#94A3B8" stroke="#94A3B8" stroke-width="0.831319"/>
<path d="M7.48145 7.06641C11.1984 7.06641 14.2442 9.91888 14.543 13.5459C14.4289 14.1162 13.925 14.5479 13.3174 14.5479H1.64648C1.03779 14.5479 0.531758 14.1149 0.418945 13.543C0.718948 9.91745 3.76546 7.06663 7.48145 7.06641ZM13.7334 14.1074L12.9014 14.1133V14.1514L13.7334 14.1572V14.1074ZM7.48145 7.89746C4.33288 7.89768 1.72752 10.2196 1.29395 13.2422L1.22559 13.7168H13.7383L13.6699 13.2422C13.2363 10.2195 10.6301 7.89746 7.48145 7.89746Z" fill="#94A3B8" stroke="#94A3B8" stroke-width="0.831319"/>
</svg>
