<svg width="41" height="44" viewBox="0 0 41 44" fill="none" xmlns="http://www.w3.org/2000/svg">
<rect width="40.902" height="44" rx="10" fill="#016BFF" fill-opacity="0.1"/>
<path d="M22.3037 26.4444H23.0445V24.2222H20.8223V26.4444H21.563H22.3037Z" fill="#006BFF"/>
<path d="M19.3399 26.4444H20.0806V24.2222H17.8584V26.4444H18.5991H19.3399Z" fill="#006BFF"/>
<path d="M16.377 27.1851V29.4073H18.5992V27.1851H17.1177H16.377Z" fill="#006BFF"/>
<path d="M21.563 27.1851H20.8223H20.0816H19.3408V29.4073H21.563V27.1851Z" fill="#006BFF"/>
<path d="M24.5259 27.1851H23.7852H22.3037V29.4073H24.5259V27.1851Z" fill="#006BFF"/>
<path d="M32.3033 30.5186H8.59961V32H32.3033V30.5186Z" fill="#006BFF"/>
<path d="M28.6 29.7776V19.4072H12.3037V29.7776H14.1556V20.8887H26.7482V29.7776H28.6Z" fill="#006BFF"/>
<path d="M29.7109 16.4444L20.4516 12L11.1924 16.4444V18.6667H29.7109V16.4444ZM20.4516 17.1852C19.6331 17.1852 18.9702 16.5222 18.9702 15.7037C18.9702 14.8852 19.6331 14.2222 20.4516 14.2222C21.2702 14.2222 21.9331 14.8852 21.9331 15.7037C21.9331 16.5222 21.2702 17.1852 20.4516 17.1852Z" fill="#006BFF"/>
</svg>
