<svg width="40" height="44" viewBox="0 0 40 44" fill="none" xmlns="http://www.w3.org/2000/svg">
<rect width="39.4829" height="44" rx="10" fill="#016BFF" fill-opacity="0.1"/>
<path d="M24.6107 29.9906C23.5955 29.4868 22.446 29.32 21.3295 29.5144C20.8583 29.5919 20.4031 29.7464 19.9821 29.9718L19.9816 29.972C19.1679 30.4129 18.2549 30.6381 17.3296 30.6263C16.3871 30.621 15.458 30.4037 14.6109 29.9906C12.2647 28.8753 10.3911 29.7527 10.0394 29.9399C10.0052 29.958 9.98559 29.9695 9.98139 29.972C9.94253 29.9953 9.89992 30.0115 9.85547 30.0202V31.9999H29.7023V30.116C28.9521 30.4508 28.1393 30.6225 27.3177 30.6198C26.3796 30.6157 25.4544 30.4006 24.6107 29.9906Z" fill="#006BFF"/>
<path d="M24.6107 27.3895C23.5955 26.8858 22.446 26.7189 21.3295 26.9133C20.8583 26.9908 20.4031 27.1453 19.9821 27.3707L19.9816 27.371C19.1679 27.8118 18.2549 28.037 17.3296 28.0252C16.3871 28.0199 15.458 27.8026 14.6109 27.3895C12.2647 26.2742 10.3911 27.1516 10.0394 27.3389C10.0052 27.357 9.98559 27.3684 9.98139 27.371C9.94253 27.3942 9.89992 27.4105 9.85547 27.4191V29.1584C10.5392 28.8433 12.5403 28.1395 14.947 29.2837C15.9623 29.7876 17.1119 29.9544 18.2286 29.76C18.6996 29.6825 19.1546 29.5281 19.5755 29.3029C19.6771 29.241 21.9813 27.8736 24.9468 29.2837C27.2912 30.3985 29.1665 29.5217 29.5187 29.3346C29.5521 29.3166 29.5723 29.3047 29.5763 29.3023C29.6152 29.2791 29.6578 29.2627 29.7023 29.2541V27.515C28.9521 27.8498 28.1393 28.0215 27.3177 28.0187C26.3796 28.0146 25.4545 27.7996 24.6107 27.3895Z" fill="#006BFF"/>
<path d="M27.3177 25.4177C26.3796 25.4135 25.4545 25.1985 24.6107 24.7884C23.5955 24.2846 22.446 24.1178 21.3295 24.3122C20.8583 24.3897 20.4031 24.5442 19.9821 24.7696L19.9816 24.7699C19.1679 25.2107 18.2549 25.4359 17.3296 25.4241C16.3871 25.4188 15.458 25.2016 14.6109 24.7884C12.2647 23.6731 10.3911 24.5505 10.0394 24.7378C10.0052 24.7559 9.98559 24.7673 9.98139 24.7699C9.94253 24.7931 9.89992 24.8094 9.85547 24.818V26.5573C10.5392 26.2423 12.5403 25.5385 14.947 26.6826C15.9623 27.1865 17.1119 27.3534 18.2286 27.159C18.6996 27.0814 19.1546 26.927 19.5755 26.7019C19.6771 26.6399 21.9813 25.2725 24.9468 26.6826C27.2912 27.7974 29.1665 26.9206 29.5187 26.7335C29.5521 26.7155 29.5723 26.7036 29.5763 26.7012C29.6152 26.678 29.6578 26.6616 29.7023 26.653V24.9139C28.9521 25.2487 28.1393 25.4204 27.3177 25.4177Z" fill="#006BFF"/>
<path d="M10.7621 14.6333C10.7621 14.1955 10.936 13.7757 11.2455 13.4662C11.555 13.1567 11.9748 12.9828 12.4126 12.9828C12.8503 12.9828 13.2701 13.1567 13.5796 13.4662C13.8892 13.7757 14.0631 14.1955 14.0631 14.6333V23.7338C14.3655 23.8289 14.661 23.945 14.9472 24.0814C14.9801 24.0971 15.0126 24.1123 15.0454 24.1272V21.9123H20.3038V23.7749C20.5931 23.6736 20.89 23.5956 21.1918 23.5417C21.2231 23.5362 21.2548 23.5307 21.2865 23.5256V14.6333C21.2865 13.9349 21.0091 13.2651 20.5153 12.7713C20.0214 12.2774 19.3517 12 18.6533 12C17.9549 12 17.2851 12.2774 16.7913 12.7713C16.2974 13.2651 16.02 13.9349 16.02 14.6333V14.6528H17.0028V14.6333C17.0028 14.1955 17.1767 13.7757 17.4862 13.4662C17.7957 13.1567 18.2155 12.9828 18.6533 12.9828C19.091 12.9828 19.5108 13.1567 19.8203 13.4662C20.1299 13.7757 20.3037 14.1955 20.3037 14.6333V16.5354H15.0454V14.6333C15.0454 13.9349 14.768 13.2652 14.2742 12.7714C13.7804 12.2776 13.1107 12.0002 12.4124 12.0002C11.714 12.0002 11.0443 12.2776 10.5505 12.7714C10.0567 13.2652 9.7793 13.9349 9.7793 14.6333V14.6528H10.7621V14.6333ZM15.0454 17.5182H20.3038V18.7327H15.0454V17.5182ZM15.0454 19.7153H20.3038V20.9298H15.0454V19.7153Z" fill="#006BFF"/>
</svg>
