<svg width="36" height="38" viewBox="0 0 36 38" fill="none" xmlns="http://www.w3.org/2000/svg">
<path d="M23.5087 38.0006H1.2592C0.607646 37.9878 0.0681392 37.4883 0.00568038 36.8384C-0.0551555 36.19 0.378696 35.5977 1.01748 35.4616V31.9748C1.01908 29.8792 2.71764 28.1822 4.81325 28.179H19.9546C22.0502 28.1822 23.7488 29.8792 23.7504 31.9748V35.4616C24.3891 35.5976 24.8246 36.19 24.7622 36.84C24.6997 37.4883 24.1603 37.9878 23.5087 38.0006ZM3.57887 35.4391H21.1891V31.9748C21.1875 31.2944 20.6367 30.7421 19.9548 30.7405H4.81341C4.13141 30.7421 3.57911 31.2944 3.57911 31.9748L3.57887 35.4391ZM31.8591 30.076C30.8569 30.0776 29.8948 29.6806 29.1872 28.9714L24.9655 24.7497C23.8048 23.6451 23.507 21.9113 24.2322 20.485L23.0236 19.2763L19.2326 23.0688L19.231 23.0672C19.2518 24.4713 18.4225 25.7488 17.1338 26.3043C15.8451 26.8598 14.3482 26.5844 13.3396 25.6079L6.56463 18.8329C5.57849 17.8275 5.29509 16.3259 5.84902 15.0308C6.40135 13.7356 7.68209 12.9015 9.0909 12.9192L18.4851 3.52493V3.52653C18.4659 2.11612 19.3 0.83379 20.5967 0.279857C21.8935 -0.274076 23.3951 0.00930025 24.4021 0.997068L31.1578 7.75442V7.75282C32.136 8.76462 32.4114 10.2647 31.859 11.5582C31.3051 12.8517 30.0292 13.6858 28.622 13.6762L24.8342 17.464L26.0429 18.6727H26.0445C27.4629 17.9475 29.1919 18.2389 30.2933 19.3915L30.226 19.4604C30.9304 20.0287 32.1375 21.2358 34.5293 23.6292V23.6276C35.2417 24.3352 35.6387 25.2973 35.6371 26.2995C35.6211 28.3791 33.9387 30.0617 31.8591 30.076ZM27.6743 20.8404C27.1732 20.8388 26.7217 21.1397 26.528 21.6024C26.3343 22.0651 26.4384 22.5966 26.7906 22.9536L30.9979 27.161C31.475 27.6188 32.2338 27.6124 32.7013 27.1434C33.1703 26.6759 33.1784 25.917 32.7189 25.44C32.7189 25.44 28.5935 21.313 28.5021 21.2232V21.2216C28.2876 20.9895 27.9897 20.8516 27.6743 20.8404ZM8.38664 17.0318L15.1329 23.7781C16.0711 24.6538 17.1645 23.2097 16.3849 22.5053C16.244 22.3756 9.72012 15.823 9.56479 15.6935V15.6951C9.19177 15.4069 8.66188 15.4581 8.35131 15.8119C8.03913 16.1641 8.05525 16.6972 8.38664 17.0318ZM11.5677 14.0653L18.0898 20.5874L26.157 12.5202L19.6348 5.99808L11.5677 14.0653ZM28.6397 11.1052C29.0127 11.118 29.3553 10.9034 29.5074 10.5624C29.6611 10.2215 29.5923 9.82282 29.3345 9.55229L22.5993 2.81706C22.2519 2.47287 21.6916 2.47446 21.3442 2.82026C20.9984 3.16446 20.9936 3.72477 21.3362 4.07538L25.5128 8.25365C27.3795 9.99705 27.7589 10.8023 28.6394 11.1049L28.6397 11.1052Z" fill="#CFAB57"/>
</svg>
