<svg width="26" height="26" viewBox="0 0 26 26" fill="none" xmlns="http://www.w3.org/2000/svg">
<path d="M16.2922 3.46289L13.7002 5.92531" stroke="#006BFF" stroke-width="2" stroke-linecap="round" stroke-linejoin="round"/>
<path d="M4.75843 8.51728L1 7.48047" stroke="#006BFF" stroke-width="2" stroke-linecap="round" stroke-linejoin="round"/>
<path d="M5.92531 13.7007L3.46289 16.2927" stroke="#006BFF" stroke-width="2" stroke-linecap="round" stroke-linejoin="round"/>
<path d="M7.48047 1.00049L8.51728 4.75892" stroke="#006BFF" stroke-width="2" stroke-linecap="round" stroke-linejoin="round"/>
<path d="M9.86088 10.7072C9.81063 10.5888 9.79689 10.4581 9.82143 10.3318C9.84597 10.2056 9.90767 10.0896 9.99861 9.99861C10.0896 9.90767 10.2056 9.84597 10.3318 9.82143C10.4581 9.79689 10.5888 9.81063 10.7072 9.86088L24.9633 15.6929C25.0902 15.745 25.1973 15.8359 25.2692 15.9527C25.3411 16.0695 25.3741 16.2061 25.3634 16.3428C25.3527 16.4795 25.299 16.6094 25.2098 16.7136C25.1207 16.8178 25.0008 16.8911 24.8674 16.9228L19.231 18.272C18.9984 18.3276 18.7856 18.4465 18.6163 18.6155C18.4471 18.7845 18.3279 18.9971 18.272 19.2297L16.9241 24.8674C16.8927 25.0013 16.8195 25.1217 16.7152 25.2112C16.6108 25.3007 16.4807 25.3547 16.3436 25.3654C16.2065 25.3761 16.0696 25.3429 15.9526 25.2706C15.8356 25.1983 15.7447 25.0907 15.6929 24.9633L9.86088 10.7072Z" fill="#006BFF"/>
</svg>
