<svg width="25" height="23" viewBox="0 0 25 23" fill="none" xmlns="http://www.w3.org/2000/svg">
<path d="M6.00956 4.74096L6.94228 4.28977V7.2558L8.64331 6.45716C8.76923 6.39653 8.90797 6.36505 9.04788 6.36388C9.18662 6.36505 9.32303 6.39653 9.44896 6.45716L18.1547 10.6205H18.1535C18.6187 10.842 18.8158 11.4005 18.5942 11.8657C18.3716 12.3309 17.8143 12.5279 17.3491 12.3052L17.2966 12.2807L17.2954 21.4049H22.2294V4.30477L23.1621 4.75597C23.2041 4.77695 23.2496 4.78745 23.2962 4.78745C23.4408 4.78628 23.5655 4.68601 23.5982 4.54494C23.6296 4.40387 23.5597 4.2593 23.4303 4.19633L14.7246 0.030605C14.6394 -0.0102017 14.5415 -0.0102017 14.4576 0.030605L5.75183 4.19633C5.6096 4.27677 5.5548 4.45399 5.62475 4.6009C5.69587 4.74781 5.86726 4.81543 6.01882 4.75597L6.00956 4.74096ZM10.1263 4.74096C10.1263 4.56958 10.2651 4.42966 10.4376 4.42966H18.7446C18.8274 4.42966 18.9067 4.46231 18.965 4.5206C19.0233 4.57889 19.0559 4.65818 19.0559 4.74095V10.2253C19.0559 10.3081 19.0233 10.3874 18.965 10.4457C18.9067 10.504 18.8274 10.5366 18.7446 10.5366H18.0637C17.8924 10.5366 17.7524 10.3967 17.7524 10.2253C17.7524 10.0539 17.8924 9.914 18.0637 9.914H18.4333V5.05225H14.9019V8.20706C14.9019 8.37961 14.7631 8.51836 14.5906 8.51836C14.4192 8.51836 14.2804 8.37962 14.2804 8.20706V5.05225H10.7477V6.36387C10.7477 6.53525 10.609 6.67517 10.4376 6.67517C10.2651 6.67517 10.1263 6.53526 10.1263 6.36387L10.1263 4.74096ZM5.24817 18.0264H8.72145V22.6491H5.24817V18.0264ZM24.434 22.0277H16.661V11.292L17.5937 11.7432V11.7421C17.6357 11.7631 17.6812 11.7736 17.7278 11.7736C17.8724 11.7724 17.9971 11.6721 18.0298 11.531C18.0612 11.39 17.9913 11.2454 17.8619 11.1824L9.15614 7.01671C9.07103 6.97591 8.9731 6.97591 8.88915 7.01671L0.183427 11.1824C0.106479 11.2174 0.0470178 11.2815 0.0190364 11.3597C-0.0101111 11.4389 -0.00544739 11.5264 0.030695 11.6022C0.0680036 11.6768 0.133294 11.7351 0.212576 11.7619C0.291855 11.7875 0.379297 11.7805 0.453914 11.7421L1.38663 11.2909V22.0277H0.313992C0.142606 22.0277 0.00268972 22.1664 0.00268972 22.3378C0.00268972 22.5104 0.142597 22.6491 0.313992 22.6491H4.62656V17.7151C4.62656 17.5437 4.7653 17.4038 4.9367 17.4038H9.03139C9.11417 17.4038 9.19345 17.4365 9.25174 17.4948C9.31004 17.5531 9.34268 17.6323 9.34268 17.7151V22.6491H24.4338C24.6052 22.6491 24.7451 22.5104 24.7451 22.3378C24.7451 22.1664 24.6054 22.0277 24.434 22.0277ZM13.4152 15.079C13.4152 15.1606 13.3825 15.2399 13.3242 15.2982C13.2659 15.3565 13.1866 15.3891 13.105 15.3891H8.50683C8.33428 15.3891 8.19553 15.2504 8.19553 15.079V12.2086C8.19553 12.0372 8.33426 11.8984 8.50683 11.8984H13.105C13.1866 11.8984 13.2659 11.9311 13.3242 11.9894C13.3825 12.0477 13.4152 12.127 13.4152 12.2086V15.079ZM8.81696 12.5199H12.7937V14.7677H8.81696V12.5199Z" fill="#006BFF"/>
</svg>
