<svg width="47" height="38" viewBox="0 0 47 38" fill="none" xmlns="http://www.w3.org/2000/svg">
<path d="M14.7609 29.1328H13.7379L13.1046 27.0868C12.7635 26.015 11.7892 25.333 10.7175 25.333H4.87158C3.75112 25.333 2.7768 26.015 2.48451 27.0868L1.8512 29.1328H0.779453C0.341011 29.1328 0 29.4739 0 29.9123V30.3507C0 30.7892 0.341011 31.1302 0.779453 31.1302H1.07175C0.925601 31.8609 0.828169 32.6404 0.828169 33.3711V37.2197C0.828169 37.6581 1.16918 37.9991 1.60762 37.9991H2.92295C3.36139 37.9991 3.7024 37.6581 3.7024 37.2197V36.0018H11.7405V37.2197C11.7405 37.6581 12.0815 37.9991 12.52 37.9991H13.8353C14.2737 37.9991 14.6148 37.6581 14.6148 37.2197V33.3711C14.6148 32.5917 14.5173 31.8609 14.3712 31.1302H14.6635C15.1019 31.1302 15.4429 30.7892 15.4429 30.3507V29.9123C15.5404 29.5226 15.1993 29.1328 14.7609 29.1328ZM3.9947 27.5739C4.14085 27.1842 4.48186 26.9406 4.87158 26.9406H10.6688C11.0585 26.9406 11.4482 27.1842 11.5457 27.5739L12.3251 29.961C12.3738 30.0584 12.2764 30.2046 12.179 30.2046H3.41011C3.31268 30.2046 3.21525 30.1072 3.26396 29.961L3.9947 27.5739ZM4.9203 33.8583H3.26396C2.97167 33.8583 2.7768 33.6147 2.7768 33.3711V32.5917C2.7768 32.2994 3.0691 32.0558 3.36139 32.1045L4.87158 32.3481C5.06645 32.3968 5.21259 32.543 5.26131 32.7378L5.35874 33.2737C5.45617 33.6147 5.21259 33.8583 4.9203 33.8583ZM12.7635 33.3711C12.7635 33.6634 12.52 33.8583 12.2764 33.8583H10.6688C10.3765 33.8583 10.1329 33.566 10.1816 33.2737L10.279 32.7378C10.3278 32.543 10.4739 32.3968 10.6688 32.3481L12.179 32.1045C12.4713 32.0558 12.7635 32.2994 12.7635 32.5917V33.3711Z" fill="#2CC584"/>
<path d="M41.8961 0C39.4604 0 37.5117 1.94863 37.5117 4.38443C37.5117 7.11251 40.1424 11.0098 41.3116 12.6661C41.6039 13.0558 42.1884 13.0558 42.4807 12.6661C43.6986 11.0098 46.2806 7.11251 46.2806 4.38443C46.2806 1.94863 44.3319 0 41.8961 0ZM41.8961 6.52792C40.727 6.52792 39.7526 5.55361 39.7526 4.38443C39.7526 3.21525 40.727 2.24093 41.8961 2.24093C43.0653 2.24093 44.0396 3.21525 44.0396 4.38443C44.0396 5.55361 43.0653 6.52792 41.8961 6.52792Z" fill="#2CC584"/>
<path d="M18.4143 32.835H17.2452C16.8067 32.835 16.417 33.2247 16.417 33.6631C16.417 34.1016 16.8067 34.4913 17.2452 34.4913H18.4143C18.8528 34.4913 19.2425 34.1016 19.2425 33.6631C19.2425 33.2247 18.8528 32.835 18.4143 32.835Z" fill="#2CC584"/>
<path d="M19.7299 17.3924C20.1196 17.3924 20.4606 17.1488 20.5093 16.7591C20.558 16.4181 20.7042 16.1258 20.8503 15.8335C21.0452 15.4438 20.8503 14.9079 20.4606 14.7617C20.0709 14.5669 19.5837 14.7617 19.3889 15.1515C19.194 15.5412 19.0478 15.9796 18.9504 16.4181C18.853 16.8565 19.1453 17.295 19.5837 17.3924C19.5837 17.3924 19.6812 17.3924 19.7299 17.3924Z" fill="#2CC584"/>
<path d="M37.6575 11.5469H36.4883C36.0499 11.5469 35.6602 11.9366 35.6602 12.375C35.6602 12.8135 36.0499 13.2032 36.4883 13.2032H37.6575C38.096 13.2032 38.4857 12.8135 38.4857 12.375C38.4857 11.9366 38.1447 11.5469 37.6575 11.5469Z" fill="#2CC584"/>
<path d="M22.5061 13.7862C22.6523 13.7862 22.7497 13.7375 22.8959 13.6888C23.1882 13.5427 23.4805 13.3965 23.8215 13.3478C24.2599 13.2504 24.5035 12.7632 24.4061 12.3248C24.3086 11.8863 23.8215 11.594 23.383 11.7402C22.9446 11.8376 22.5061 12.0325 22.1164 12.2273C21.7267 12.4222 21.5318 12.9093 21.7754 13.3478C21.9215 13.5914 22.2138 13.7862 22.5061 13.7862Z" fill="#2CC584"/>
<path d="M31.8116 13.2032H32.9807C33.4192 13.2032 33.8089 12.8135 33.8089 12.375C33.8089 11.9366 33.4192 11.5469 32.9807 11.5469H31.8116C31.3731 11.5469 30.9834 11.9366 30.9834 12.375C30.9834 12.8135 31.3731 13.2032 31.8116 13.2032Z" fill="#2CC584"/>
<path d="M27.086 13.2032H28.2552C28.6936 13.2032 29.0833 12.8135 29.0833 12.375C29.0833 11.9366 28.6936 11.5469 28.2552 11.5469H27.086C26.6475 11.5469 26.2578 11.9366 26.2578 12.375C26.2578 12.8135 26.6475 13.2032 27.086 13.2032Z" fill="#2CC584"/>
<path d="M27.8167 32.835H26.6475C26.2091 32.835 25.8193 33.2247 25.8193 33.6631C25.8193 34.1016 26.2091 34.4913 26.6475 34.4913H27.8167C28.2551 34.4913 28.6449 34.1016 28.6449 33.6631C28.6449 33.2247 28.2551 32.835 27.8167 32.835Z" fill="#2CC584"/>
<path d="M32.3473 32.7377C32.055 32.7864 31.7627 32.8351 31.4704 32.8351H31.3243C30.8858 32.8351 30.4961 33.2248 30.4961 33.6633C30.4961 34.1017 30.8858 34.4914 31.3243 34.4914H31.4704C31.8601 34.4914 32.2499 34.4427 32.6396 34.394C33.078 34.2966 33.3703 33.8581 33.2729 33.4197C33.2242 32.9325 32.7857 32.6402 32.3473 32.7377Z" fill="#2CC584"/>
<path d="M34.4903 22.9944C34.1006 22.7508 33.6622 22.6047 33.2237 22.4585C32.7853 22.3124 32.3468 22.5559 32.2007 22.9944C32.0545 23.4328 32.2981 23.8713 32.7366 24.0174C33.0289 24.1148 33.3699 24.261 33.6622 24.4071C33.8083 24.4559 33.9545 24.5046 34.0519 24.5046C34.3442 24.5046 34.6365 24.3584 34.7826 24.0661C35.0262 23.7251 34.8801 23.1892 34.4903 22.9944Z" fill="#2CC584"/>
<path d="M36.5366 30.1079C36.1469 29.913 35.6597 30.0592 35.4162 30.4489C35.27 30.7412 35.0752 31.0335 34.8316 31.2771C34.5393 31.6181 34.588 32.154 34.929 32.4463C35.0752 32.5924 35.27 32.6411 35.4649 32.6411C35.7085 32.6411 35.9033 32.5437 36.0982 32.3488C36.3905 32.0078 36.6341 31.6181 36.8776 31.2284C37.1212 30.8386 36.9751 30.3028 36.5366 30.1079Z" fill="#2CC584"/>
<path d="M29.5218 22.1667H28.3526C27.9141 22.1667 27.5244 22.5565 27.5244 22.9949C27.5244 23.4334 27.9141 23.8231 28.3526 23.8231H29.5218C29.9602 23.8231 30.3499 23.4334 30.3499 22.9949C30.3499 22.5565 29.9602 22.1667 29.5218 22.1667Z" fill="#2CC584"/>
<path d="M36.0501 25.5274C35.6117 25.7222 35.4168 26.1607 35.6117 26.5991C35.7578 26.8914 35.8552 27.2324 35.904 27.5247C35.9527 27.9144 36.3424 28.2067 36.7321 28.2067C36.7808 28.2067 36.8296 28.2067 36.8783 28.2067C37.3167 28.1093 37.609 27.7196 37.5603 27.2324C37.4629 26.794 37.3654 26.3555 37.1706 25.9171C36.9757 25.5761 36.4886 25.3812 36.0501 25.5274Z" fill="#2CC584"/>
<path d="M23.1399 32.835H21.9707C21.5323 32.835 21.1426 33.2247 21.1426 33.6631C21.1426 34.1016 21.5323 34.4913 21.9707 34.4913H23.1399C23.5784 34.4913 23.9681 34.1016 23.9681 33.6631C23.9681 33.2247 23.5784 32.835 23.1399 32.835Z" fill="#2CC584"/>
<path d="M24.845 22.167C24.5039 22.167 24.1629 22.1183 23.8706 22.0208C23.4322 21.9234 22.9938 22.167 22.8963 22.6054C22.7989 23.0439 23.0425 23.4823 23.4809 23.5797C23.9194 23.6772 24.3578 23.7259 24.845 23.7746C25.2834 23.7746 25.6731 23.4336 25.6731 22.9464C25.6244 22.5567 25.2834 22.2157 24.845 22.167Z" fill="#2CC584"/>
<path d="M21.3862 20.4618C21.1913 20.2182 20.9965 19.9259 20.8503 19.6337C20.6554 19.2439 20.1683 19.0491 19.7298 19.2439C19.3401 19.4388 19.1453 19.9259 19.3401 20.3644C19.535 20.7541 19.7786 21.1438 20.0709 21.5336C20.217 21.7284 20.4606 21.8259 20.7042 21.8259C20.899 21.8259 21.0452 21.7771 21.1913 21.631C21.6298 21.3387 21.6785 20.8515 21.3862 20.4618Z" fill="#2CC584"/>
</svg>
